<?xml version="1.0" encoding="UTF-8" standalone="no"?>
<!-- Created with Inkscape (http://www.inkscape.org/) -->

<svg
   xmlns:dc="http://purl.org/dc/elements/1.1/"
   xmlns:cc="http://creativecommons.org/ns#"
   xmlns:rdf="http://www.w3.org/1999/02/22-rdf-syntax-ns#"
   xmlns:svg="http://www.w3.org/2000/svg"
   xmlns="http://www.w3.org/2000/svg"
   xmlns:sodipodi="http://sodipodi.sourceforge.net/DTD/sodipodi-0.dtd"
   xmlns:inkscape="http://www.inkscape.org/namespaces/inkscape"
   version="1.1"
   id="svg2"
   xml:space="preserve"
   width="239"
   height="106"
   viewBox="0 0 239 105.99999"
   sodipodi:docname="logo.svg"
   inkscape:version="0.92.3 (2405546, 2018-03-11)"><metadata
     id="metadata8"><rdf:RDF><cc:Work
         rdf:about=""><dc:format>image/svg+xml</dc:format><dc:type
           rdf:resource="http://purl.org/dc/dcmitype/StillImage" /><dc:title /></cc:Work></rdf:RDF></metadata><defs
     id="defs6"><clipPath
   clipPathUnits="userSpaceOnUse"
   id="clipPath20"><path
     d="M 33,0 V 8420 H 5950 V 0 Z"
     id="path18"
     inkscape:connector-curvature="0" /></clipPath><clipPath
   clipPathUnits="userSpaceOnUse"
   id="clipPath138"><path
     d="m 5197.14,7599.1 h 109.871 v 89.8828 H 5197.14 Z"
     id="path136"
     inkscape:connector-curvature="0" /></clipPath>

</defs><sodipodi:namedview
     pagecolor="#ffffff"
     bordercolor="#666666"
     borderopacity="1"
     objecttolerance="10"
     gridtolerance="10"
     guidetolerance="10"
     inkscape:pageopacity="0"
     inkscape:pageshadow="2"
     inkscape:window-width="1920"
     inkscape:window-height="1015"
     id="namedview4"
     showgrid="false"
     inkscape:zoom="2.8284271"
     inkscape:cx="119.92504"
     inkscape:cy="83.341063"
     inkscape:window-x="0"
     inkscape:window-y="0"
     inkscape:window-maximized="1"
     inkscape:current-layer="g10" /><g
     id="g10"
     inkscape:groupmode="layer"
     inkscape:label="PO2012EC7"
     transform="matrix(1.3333333,0,0,-1.3333333,0,105.99995)"><text
   transform="scale(0.96512175,-1.0361387)"
   style="font-variant:normal;font-size:7.74133825px;font-family:f-2;-inkscape-font-specification:f-2-0;writing-mode:lr-tb;fill:#aaaaaa;fill-opacity:1;fill-rule:nonzero;stroke:none;stroke-width:0.96512175"
   id="text84"
   x="165.29788"
   y="-733.80231"><tspan
     sodipodi:role="line"
     id="tspan82"
     style="stroke-width:0.96512175"
     x="165.29788"
     y="-726.95306" /></text>


<rect
   style="fill:#ffffff;fill-opacity:0.58715594;stroke:none;stroke-width:1.60581982;stroke-linecap:butt;stroke-linejoin:miter;stroke-miterlimit:4;stroke-dasharray:none;stroke-dashoffset:0;stroke-opacity:1"
   id="rect2072"
   width="179.43469"
   height="80.111519"
   x="-0.092343949"
   y="-79.80574"
   transform="scale(1,-1)"
   rx="40.055759"
   ry="40.055759" /><path
   inkscape:connector-curvature="0"
   id="path86"
   style="fill:#d7e7ef;fill-opacity:1;fill-rule:nonzero;stroke:none;stroke-width:0.1"
   d="m 51.996894,41.709569 6.5274,4.97 5.1191,6.083 6.9406,-8.518 4.3309,-2.628 -6.1836,-5.157 -1.4281,-2.486 -3.6598,-4.291 -2.7391,2.38 -2.4968,4.446" /><path
   inkscape:connector-curvature="0"
   id="path88"
   style="fill:#a9cce1;fill-opacity:1;fill-rule:nonzero;stroke:none;stroke-width:0.1"
   d="m 68.789094,36.580569 c -0.2496,-0.149 -5.4195,-5.919 -4.8961,-6.379 -2.5871,1.525 -3.5976,4.404 -5.3808,6.234 -1.6848,1.729 -6.1606,4.892 -6.1606,4.892 0,0 3.2231,2.86 6.2426,5.356 3.0164,2.493 5.8332,4.619 8.0144,3.148 0.3817,-0.257 0.8274,-1.868 2.0637,-3.039 1.3856,-1.31 6.0359,-5.188 6.0359,-5.188 0,0 0.0512,1.942 -5.9191,-5.024 z m -5.3605,1.564 c 0.0308,0.023 -0.086,0.316 -0.2536,0.644 -0.3707,0.71 -0.3937,0.901 -0.0859,0.784 0.1285,-0.051 0.3086,0.022 0.4172,0.176 0.1988,0.268 0.6094,0.167 0.4375,-0.11 -0.1059,-0.168 0.7883,-0.097 1.9898,0.155 1.0297,0.219 1.2836,0.82 0.4954,1.179 -0.3196,0.149 -0.3625,0.238 -0.2848,0.628 0.1359,0.683 -0.1367,1.467 -0.7059,2.02 -0.2808,0.27 -0.4765,0.551 -0.4336,0.617 0.0391,0.07 0.3086,0.125 0.5934,0.125 0.3934,0 0.6402,-0.12 1.0176,-0.499 0.2738,-0.274 0.4996,-0.628 0.4996,-0.788 0,-0.239 0.1019,-0.288 0.5851,-0.288 0.6914,0 0.7301,0.139 0.2739,1.029 -0.3625,0.714 -1.5723,1.946 -2.1504,2.192 -0.4285,0.184 -2.9606,0.254 -2.9606,0.078 0,-0.054 -0.3316,-0.245 -0.7343,-0.421 -0.4055,-0.172 -0.7329,-0.367 -0.7329,-0.433 0,-0.066 -0.125,-0.156 -0.2808,-0.206 -0.1528,-0.048 -0.3207,-0.258 -0.3707,-0.465 -0.0547,-0.206 -0.2305,-0.562 -0.3985,-0.788 -0.2687,-0.359 -0.2925,-0.53 -0.1988,-1.443 0.0582,-0.597 0.191,-1.109 0.3078,-1.206 0.1137,-0.093 0.2078,-0.269 0.2078,-0.386 0,-0.121 0.1317,-0.387 0.2914,-0.589 0.161,-0.207 0.293,-0.5 0.293,-0.651 0,-0.153 0.3164,-0.57 0.6988,-0.929 0.5575,-0.52 0.7684,-0.632 1.061,-0.562 0.2027,0.051 0.3945,0.11 0.4215,0.137 z m 0.2457,2.84 c -0.2067,0.226 -0.2418,0.425 -0.1637,0.935 0.0816,0.543 0.1715,0.684 0.5383,0.836 0.5933,0.245 1.1976,-0.011 1.1394,-0.484 -0.0199,-0.184 0.0512,-0.491 0.1559,-0.687 0.1758,-0.32 0.164,-0.385 -0.1328,-0.624 -0.4364,-0.355 -1.2055,-0.343 -1.5371,0.024 z m 1.7558,-2.981 c 0.1949,0.075 0.2028,0.118 0.0469,0.214 -0.2773,0.18 -0.3703,0.16 -0.4684,-0.089 -0.0898,-0.238 0.0352,-0.273 0.4215,-0.125 z m 2.8129,1.252 c 0.3317,0.313 0.4805,1.148 0.2067,1.148 -0.125,0 -0.7493,-1.14 -0.7493,-1.366 0,-0.188 0.2,-0.105 0.5426,0.218 z m -9.3402,1.733 c 0,0.082 -0.1059,0.147 -0.2305,0.147 -0.125,0 -0.1871,-0.065 -0.1359,-0.147 0.0457,-0.082 0.1515,-0.145 0.2258,-0.145 0.0777,0 0.1406,0.063 0.1406,0.145" /><path
   inkscape:connector-curvature="0"
   id="path90"
   style="fill:#8ab7d6;fill-opacity:1;fill-rule:nonzero;stroke:none;stroke-width:0.1"
   d="m 21.469993,45.576569 c 5.810101,-16.069 6.776901,-2.439 13.031601,-0.902 13.4883,3.324 7.6789,5.431 19.1066,7.486 14.0961,2.544 1.1118,3.523 11.5915,1.869 -0.2418,-0.101 -0.8114,-0.635 -0.8114,-0.694 0,-0.055 0.3278,-0.972 0.5696,-1.315 1.514,-2.169 1.9078,-1.217 2.4039,-4.096 0.3,-1.748 5.9183,-4.421 6.2859,-4.421 0.1945,0 0.3734,-0.108 0.4164,-0.257 0.0469,-0.14 0.941,-0.616 0.9098,-1.744 -0.043,-1.759 -0.2145,-0.881 -0.5543,-1.876 -0.5262,-1.56 -4.1942,-1.509 -5.7121,-3.118 -1.5172,-1.602 -2.0059,-3.323 -2.5442,-4.735 l -0.6164,-1.607 c -32.5746,-28.756 -39.4844,-13.007 -39.875,10.615 z m 38.294901,-15.769 c 0.6363,-0.585 2.7777,0.218 2.575,0.866 -0.6824,2.169 -2.2164,3.569 -3.8664,5.813 -1.1586,1.58 -5.4977,3.436 -5.9231,4.997 -0.3707,1.365 0.0899,0.34 0.4254,1.752 0.1168,0.503 3.3321,1.623 5.5606,3.44 2.2312,1.818 2.8715,5.567 3.2769,6.168 0.4016,0.598 -2.1734,0.804 -2.3601,0.804 -3.4379,2.278 -12.0836,-5.052 -17.4684,-13.939 -9.8394,-16.244 -12.875,-37.112 17.7801,-9.901 z m 4.4398,5.684 c 0,0.199 -0.4246,0.448 -0.5496,0.328 -0.1285,-0.129 0.2301,-0.578 0.4137,-0.516 0.0738,0.024 0.1359,0.11 0.1359,0.188 z m -0.05,0.999 c 0.027,0.14 -0.0429,0.245 -0.1679,0.245 -0.2305,0 -0.4293,-0.355 -0.2817,-0.503 0.1489,-0.148 0.3989,-0.004 0.4496,0.258 z m -1.1707,1.213 c 0.4254,0.211 1.3657,0.019 1.9508,-0.395 0.4055,-0.288 0.4406,-0.292 1.3344,-0.046 0.5074,0.136 0.9828,0.304 1.0566,0.374 0.0789,0.071 0.2578,0.125 0.4028,0.125 0.2105,0 0.2418,0.082 0.1718,0.442 -0.0789,0.389 -0.039,0.46 0.3504,0.592 0.5586,0.196 0.7614,0.648 0.6672,1.479 -0.043,0.374 0.027,1.049 0.1598,1.568 0.1879,0.734 0.2027,1.061 0.075,1.677 -0.1957,0.933 -0.3555,1.198 -1.2996,2.146 -0.4133,0.41 -0.7379,0.87 -0.7379,1.037 0,0.184 -0.136,0.356 -0.3356,0.434 -0.1867,0.07 -0.4246,0.233 -0.5343,0.366 -0.195,0.231 -1.3805,0.82 -1.6582,0.82 -0.0778,0 -0.1047,-0.102 -0.0579,-0.223 0.0579,-0.155 -0.016,-0.218 -0.2578,-0.218 -0.5383,0 -1.2644,0.304 -1.2644,0.526 0,0.243 0.2738,0.262 0.7961,0.063 0.2265,-0.086 0.3785,-0.09 0.3785,-0.004 0,0.285 -1.0027,0.401 -2.407,0.281 -1.3817,-0.117 -1.9399,-0.304 -1.7602,-0.597 0.0512,-0.077 0.2187,-0.051 0.4016,0.07 0.1839,0.117 0.714,0.211 1.2484,0.219 0.8043,0.011 0.984,-0.035 1.2918,-0.347 0.1996,-0.195 0.3203,-0.426 0.2695,-0.504 -0.125,-0.203 -1.0027,-0.183 -1.2097,0.024 -0.1329,0.132 -0.1875,0.121 -0.2375,-0.036 -0.0352,-0.113 -0.102,-0.327 -0.1489,-0.475 -0.0511,-0.149 -0.3465,-0.371 -0.6632,-0.496 -0.3625,-0.14 -0.5504,-0.296 -0.5036,-0.417 0.0512,-0.129 -0.0898,-0.211 -0.4132,-0.254 -0.4485,-0.054 -0.4606,-0.07 -0.152,-0.176 0.4055,-0.14 0.7961,-0.838 0.6672,-1.205 -0.1637,-0.464 -0.6793,-0.925 -1.0297,-0.925 -0.3355,0 -0.9289,0.461 -0.9289,0.722 0,0.078 0.1008,0.238 0.2227,0.359 0.2808,0.282 0.2847,0.827 0,0.827 -0.2696,0 -0.8122,-1.03 -0.8122,-1.537 0,-0.203 -0.0816,-0.375 -0.1836,-0.379 -0.1011,-0.007 -0.0351,-0.07 0.1489,-0.144 0.1797,-0.069 0.4402,-0.366 0.5773,-0.651 0.1715,-0.363 0.3434,-0.515 0.5731,-0.515 0.4215,0 0.9371,-0.651 0.9371,-1.182 0,-0.226 -0.1141,-0.612 -0.2539,-0.862 -0.2266,-0.402 -0.2305,-0.473 -0.0387,-0.597 0.1207,-0.078 0.3035,-0.113 0.4055,-0.07 0.1019,0.039 0.2804,0.109 0.4015,0.159 0.1407,0.055 0.2188,0.004 0.2188,-0.148 0,-0.14 -0.1211,-0.234 -0.3078,-0.234 -0.2778,0 -0.3008,-0.054 -0.2078,-0.55 0.1218,-0.655 0.3128,-0.916 0.6671,-0.916 0.1411,0 0.2969,-0.098 0.3438,-0.223 0.0469,-0.121 0.1758,-0.219 0.2848,-0.219 0.1136,0 0.3246,-0.131 0.4683,-0.292 0.2656,-0.293 0.2656,-0.293 0.4293,0.032 0.0902,0.183 0.3156,0.405 0.4996,0.499 z m 3.3203,0.332 c 0.0739,0.238 -0.0203,0.288 -0.6793,0.374 -0.6125,0.082 -0.7882,0.058 -0.889,-0.125 -0.0707,-0.124 -0.3164,-0.23 -0.5465,-0.23 -0.3234,0 -0.4883,0.12 -0.734,0.534 -0.1719,0.293 -0.2805,0.562 -0.2457,0.597 0.0352,0.035 0.5774,0.098 1.2016,0.137 0.6242,0.035 1.2414,0.125 1.3695,0.191 0.1289,0.067 0.5152,0.167 0.859,0.222 0.3785,0.066 0.6242,0.183 0.6242,0.305 0,0.413 -0.3476,0.936 -0.6441,0.979 -0.2571,0.035 -0.3039,0.132 -0.2727,0.554 0.0508,0.776 -0.2617,1.642 -0.7652,2.087 -0.3746,0.335 -0.4137,0.421 -0.2258,0.546 0.3008,0.206 0.3277,0.199 0.893,-0.179 0.3168,-0.215 0.5703,-0.547 0.691,-0.913 0.2297,-0.702 0.2648,-0.742 0.5066,-0.542 0.3594,0.296 0.9879,-0.492 0.9879,-1.238 0,-0.745 -0.9519,-2.481 -1.4793,-2.699 -0.3117,-0.129 -0.3976,-0.23 -0.2887,-0.34 0.2536,-0.253 0.1758,-0.534 -0.148,-0.534 -0.2305,0 -0.2805,0.067 -0.2145,0.274 z m -1.975,0.753 c 0,0.081 -0.0656,0.147 -0.1476,0.147 -0.082,0 -0.1449,-0.066 -0.1449,-0.147 0,-0.078 0.0629,-0.145 0.1449,-0.145 0.082,0 0.1476,0.067 0.1476,0.145 z m -0.5851,2.27 c -0.2567,0.312 -0.05,1.361 0.3125,1.553 0.4797,0.26 0.9332,0.112 0.9398,-0.305 0,-0.199 0.0903,-0.507 0.184,-0.686 0.1406,-0.258 0.1328,-0.363 -0.0551,-0.546 -0.2925,-0.293 -1.1425,-0.301 -1.3812,-0.016 z m -4.7594,-0.203 c 0.1949,0.316 -0.1988,0.491 -0.6125,0.273 l -0.3863,-0.211 0.3465,-0.097 c 0.5113,-0.141 0.5425,-0.141 0.6523,0.035 z m -2.2672,1.498 c -0.1871,0.187 -0.3789,0.043 -0.2418,-0.184 0.0547,-0.089 0.1676,-0.117 0.2496,-0.066 0.0981,0.062 0.0981,0.144 -0.0121,0.25 z m 0.761,-0.246 c 0.1558,0.156 -0.0391,0.34 -0.2696,0.254 -0.1172,-0.047 -0.175,-0.145 -0.132,-0.215 0.0969,-0.155 0.2687,-0.172 0.4016,-0.039 z m 2.3023,2.532 c 0,0.164 -0.3785,0.319 -0.4996,0.199 -0.1758,-0.176 -0.0777,-0.332 0.207,-0.332 0.1598,0 0.2926,0.059 0.2926,0.133" /><path
   inkscape:connector-curvature="0"
   id="path92"
   style="fill:#679ecb;fill-opacity:1;fill-rule:nonzero;stroke:none;stroke-width:0.1"
   d="m 65.407094,53.834569 c -0.1758,-0.055 -0.3985,-0.191 -0.4922,-0.309 -0.1399,-0.167 -1.2246,-0.858 -0.8852,-0.935 2.2356,-0.496 3.3043,-4.517 4.6895,-5.856 1.333953,-1.44434 2.903351,-0.941746 3.5039,-2.762 0.234,-0.897 1.8301,0.004 1.9078,-0.199 0.125,-0.316 0.1559,-0.331 0.2457,-0.11 0.059,0.141 -0.6941,-0.272 -0.5934,-0.272 0.2809,0 1.2489,-0.176 1.0731,-1.042 -0.1051,-0.53 -0.1051,-0.948 0,-1.369 0.1637,-0.644 -2.4074,0.612 -3.1875,-1.65 -0.2266,-0.663 -1.1504,-0.82 -1.4863,-1.448 -0.3395,-0.628 -1.0457,-0.811 -1.475,-1.377 -0.4297,-0.57 -0.5774,-1.522 -1.0731,-1.998 -0.4953,-0.475 -1.3222,-1.244 -0.9246,-1.75 l -1.4043,-2.607 c 0.9746,0.227 1.8375,0.667 2.7695,0.534 0.2856,-0.039 0.7614,-0.385 0.7614,-0.385 0.6242,-0.551 1.0656,-1.273 1.0656,-1.737 0,-0.702 -2.9734,-2.964 -4.6047,-3.506 -0.7531,-0.25 -1.0848,-0.524 -3.5148,-2.915 -1.2567,-1.233 -1.9477,-1.763 -2.4512,-1.88 -0.2066,-0.051 -0.959,-0.624 -1.677,-1.279 -0.714,-0.652 -1.6043,-1.393 -1.9707,-1.643 -1.3734,-0.929 -3.9363,-3.062 -5.1379,-4.28 l -1.2457,-1.256 h -30.1515 c 12.3297,33.429 25.4273,41.621 46.2586,42.031 z m -17.0739,-30.093 c 0.4567,0.187 1.8489,0.998 3.0934,1.802 1.2484,0.808 2.7629,1.756 3.3672,2.102 0.6051,0.352 1.5102,0.917 2.0137,1.261 0.4992,0.343 1.3113,0.768 1.7949,0.947 0.4953,0.18 1.9707,0.414 2.8945,0.496 0.1875,0.02 0.9289,0.05 0.859,0.05 -0.2227,0 -3.1094,5.388 -3.9375,6.099 -2.3684,2.036 -6.1637,1.856 -6.1098,5.223 -0.5574,2.087 3.1414,2.314 6.1809,4.958 1.7949,1.643 3.5738,6.803 3.8934,7.194 0.3164,0.382 -4.5606,-2.785 -6.918,-4.038 -1.2363,-0.659 -1.9856,-0.921 -3.7844,-1.825 -1.0488,-0.527 -1.791,-1.042 -2.7898,-1.939 -2.2004,-1.982 -3.3821,-2.922 -4.4317,-3.534 -1.0539,-0.618 -1.3617,-0.996 -2.0179,-2.501 -0.5223,-1.201 -0.659,-1.811 -0.7719,-3.519 -0.0629,-0.913 -0.2188,-1.802 -0.4176,-2.348 -0.4723,-1.312 -0.4562,-4.339 0.027,-6.086 0.4605,-1.654 1.0457,-3.242 1.3035,-3.543 0.2765,-0.327 1.5023,-0.842 2.591,-1.088 1.0918,-0.246 2.0676,-0.156 3.1601,0.289 z m 16.0942,11.617 c 0.0508,0.129 0.0121,0.281 -0.0899,0.344 -0.1168,0.074 -0.1437,0.288 -0.0738,0.643 0.086,0.48 0.0656,0.534 -0.2109,0.534 -0.2149,0 -0.3746,-0.16 -0.5262,-0.53 -0.3008,-0.718 -0.2816,-0.921 0.1047,-1.077 0.4953,-0.198 0.698,-0.176 0.7961,0.086 z m 1.4941,0.999 c 0.227,0.117 0.4957,0.316 0.6016,0.44 0.1008,0.129 0.3426,0.231 0.5344,0.231 0.784,0 1.7047,0.366 2.0914,0.835 0.909,1.103 0.9707,1.213 0.9277,1.638 -0.0269,0.238 0.0242,0.476 0.1102,0.527 0.2066,0.129 0.1984,0.375 -0.0121,0.375 -0.0938,0 -0.2579,0.113 -0.3665,0.257 -0.1839,0.238 -0.2031,0.23 -0.2886,-0.082 -0.1211,-0.429 -0.4258,-0.335 -0.4258,0.129 0,0.316 0.059,0.351 0.5426,0.324 0.5301,-0.032 0.5422,-0.02 0.5543,0.51 0,0.301 0.0148,0.71 0.0187,0.914 0,0.203 -0.0738,0.643 -0.1758,0.983 -0.1597,0.515 -0.1554,0.679 0.0161,0.998 0.2457,0.461 0.1019,0.757 -0.5301,1.104 -0.2348,0.129 -0.4496,0.378 -0.4727,0.554 -0.0269,0.176 -0.125,0.32 -0.2187,0.324 -0.0969,0 -0.5035,0.21 -0.909,0.468 -0.886,0.565 -1.4473,0.894 -2.1266,1.244 -0.2844,0.145 -0.764,0.422 -1.0726,0.613 -0.5114,0.316 -0.7102,0.343 -2.3602,0.335 -1.8457,0.02 -2.8328,-1.088 -3.3949,-1.696 -0.0582,-0.308 -0.0309,-0.535 0.0777,-0.598 0.1918,-0.12 -0.2176,-0.663 -0.4953,-0.663 -0.1949,0 -0.9668,-0.94 -0.9668,-1.173 0,-0.09 -0.3637,-0.536 -0.8082,-0.984 -0.4445,-0.452 -0.8078,-0.921 -0.8078,-1.046 0,-0.585 0.6441,-1.783 0.9598,-1.783 0.0429,0 0.0589,0.181 0.0347,0.403 -0.0269,0.277 0.0282,0.406 0.1801,0.406 0.632,0.014 0.702,0.511 0.0738,0.511 -0.4914,0 -0.5773,0.23 -0.2179,0.588 0.4367,0.437 1.0179,0.336 1.3886,-0.25 0.1637,-0.253 0.4602,-0.506 0.6629,-0.557 0.6055,-0.16 0.8782,-0.511 0.8782,-1.119 0,-0.457 -0.086,-0.628 -0.4954,-0.952 l -0.4996,-0.399 0.2618,-0.464 c 0.1437,-0.254 0.3046,-0.671 0.3625,-0.932 0.1128,-0.519 1.3187,-1.545 2.0796,-1.771 0.2309,-0.07 0.5344,-0.172 0.6754,-0.23 0.2188,-0.09 0.2575,-0.024 0.2575,0.421 0,0.733 0.4644,1.034 1.3027,0.846 0.9168,-0.206 1.3383,-0.538 1.3383,-1.053 0,-0.488 0.125,-0.527 0.714,-0.226 z m -2.0633,1.88 c -0.3359,0.265 -0.4847,0.843 -0.2148,0.843 0.1168,0 0.2457,-0.136 0.2926,-0.308 0.0859,-0.332 0.4644,-0.312 0.4683,0.027 0.0153,0.429 0.2137,0.55 0.811,0.468 0.3277,-0.043 0.7414,-0.016 0.9172,0.067 0.1797,0.082 0.5234,0.207 0.7648,0.281 0.293,0.09 0.4527,0.241 0.4875,0.468 0.0621,0.444 -0.3476,1.052 -0.7141,1.052 -0.2496,0 -0.2886,0.098 -0.2886,0.723 0,0.9 -0.1949,1.431 -0.6633,1.798 -0.4375,0.343 -0.4684,0.558 -0.0816,0.558 0.4523,0 1.1425,-0.686 1.2914,-1.284 0.1367,-0.55 0.1906,-0.581 0.6511,-0.401 0.5582,0.217 0.925,-1.373 0.4953,-2.126 -0.1168,-0.203 -0.3156,-0.602 -0.4406,-0.886 -0.3234,-0.718 -0.7258,-0.925 -1.8535,-0.94 -0.7062,-0.008 -1.0301,-0.078 -1.2168,-0.266 -0.3047,-0.304 -0.3984,-0.315 -0.7059,-0.074 z m 4.2098,0.258 c 0.05,0.082 0.152,0.148 0.2297,0.148 0.0781,0 0.1371,-0.066 0.1371,-0.148 0,-0.082 -0.1019,-0.149 -0.2269,-0.149 -0.1289,0 -0.1868,0.067 -0.1399,0.149 z m -4.0812,2.512 c -0.2188,0.128 -0.2536,0.262 -0.1715,0.691 0.1285,0.678 0.3113,0.905 0.7531,0.905 0.2766,0 0.3465,-0.078 0.3465,-0.379 0,-0.207 0.0668,-0.499 0.1488,-0.647 0.2805,-0.531 -0.4644,-0.925 -1.0769,-0.57 z m -4.9082,2.942 c -0.3477,0.347 -0.2036,0.545 0.3355,0.456 0.2848,-0.047 0.5145,-0.023 0.5106,0.047 0,0.214 -0.2028,0.437 -0.4836,0.542 -0.4293,0.16 -0.1946,0.468 0.3507,0.468 0.4024,0 0.5235,-0.074 0.6282,-0.382 0.2699,-0.757 -0.811,-1.663 -1.3414,-1.131 z m 0.9871,3.031 c -0.3907,0.316 -0.3129,0.686 0.1906,0.901 0.1836,0.082 0.4453,0.226 0.5812,0.324 0.1989,0.144 0.3047,0.124 0.5504,-0.098 0.3946,-0.355 0.3786,-0.601 -0.0589,-1.037 -0.4286,-0.433 -0.811,-0.456 -1.2633,-0.09 z m 0.764,0.682 c 0,0.075 -0.0699,0.161 -0.1558,0.192 -0.0899,0.027 -0.1598,-0.059 -0.1598,-0.192 0,-0.136 0.0738,-0.221 0.1598,-0.195 0.0859,0.031 0.1558,0.117 0.1558,0.195 z m -2.6609,-7.116 c 0,0.082 0.1957,0.149 0.4293,0.149 0.5305,0 0.7101,0.242 0.4016,0.551 -0.1907,0.19 -0.2957,0.198 -0.6633,0.043 -0.4485,-0.184 -0.6742,-0.512 -0.5262,-0.754 0.109,-0.179 0.3586,-0.171 0.3586,0.015"
   sodipodi:nodetypes="cccccccsccccccccccscccccccccccccccsccccccccccccccccccscccccscccsccsccccccccccccccsscssccscccsccccccscsccsccccccsscsccccccccssscccssccccccsccccccccscscscscccc" /><path
   inkscape:connector-curvature="0"
   id="path94"
   style="fill:#5589b6;fill-opacity:1;fill-rule:nonzero;stroke:none;stroke-width:0.1"
   d="m 50.576594,56.893569 c -1.1785,-0.749 0.2297,-0.972 1.0996,-0.703 0.3828,0.118 1.7762,0.507 3.0945,0.871 2.3563,0.764 12.7661,3.338 12.786,-0.321 0,-1.31 -0.6832,-2.208 -2.2395,-2.937 -0.5582,-0.262 -0.6949,-0.468 -0.3675,-0.554 0.7613,-0.199 0.8472,-1.272 1.2097,-1.787 1.0848,-1.541 1.2805,-3.425 2.427,-4.572 1.4715,-1.467 3.5898,-2.591 4.366,-2.816 0.8039,-0.235 1.2406,-0.679 1.2836,-0.722 0.043,-0.043 0.1176,0.07 0.1637,0.253 0.08894,0.128324 0.36224,-0.137344 0.4605,-0.319 0.0391,-0.426 0,-0.54 -0.1988,-0.54 -0.1797,0 -0.2067,-0.049 -0.1008,-0.182 0.2066,-0.266 0.3355,-2.423 0.1676,-2.863 -0.0789,-0.207 -0.2387,-0.446 -0.3555,-0.535 -0.1129,-0.086 -2.9574,-0.503 -3.1645,-1.229 -0.2144,-0.741 -2.0714,-0.866 -2.4109,-1.429 -0.4797,-0.794 -0.4176,-0.701 -0.4605,-0.802 -0.027,-0.067 -0.0391,-0.282 -0.4723,-0.562 -0.4836,-0.312 -2.3645,-5.025 -2.3645,-5.08 0,-0.058 2.1817,0.683 2.5481,0.624 1.1238,-0.171 1.8457,-1.685 1.85,-2.137 0,-0.335 -1.4676,-1.764 -2.4742,-2.404 -0.5305,-0.339 -1.4043,-0.784 -1.9348,-0.99 -0.6281,-0.246 -1.2215,-0.621 -1.6859,-1.069 -3.8196,-3.647 -3.8504,-3.675 -4.4637,-3.823 -0.207,-0.051 -0.932,-0.598 -1.6152,-1.217 -0.6832,-0.617 -1.6153,-1.378 -2.0754,-1.69 -1.6274,-1.104 -4.0223,-3.116 -5.1582,-4.326 l -1.1504,-1.229 H 19.152793 c 12.047601,19.042 33.515201,47.317 32.516801,45.784 z m -3.293,-33.496 c 0.9789,0.21 2.2473,0.877 4.5414,2.388 1.0688,0.706 2.4235,1.548 3.0047,1.872 0.5852,0.324 1.4743,0.878 1.9778,1.23 0.4992,0.354 1.3113,0.787 1.8027,0.966 1.1117,0.477 2.423,0.371 3.7688,0.293 -1.7672,1.182 -3.0157,5.091 -3.8426,6.285 -1.4875,2.15 -6.0867,2.684 -6.0867,5.435 0,0.948 5.9257,4.373 6.0046,4.805 0.1707,0.944 4.5336,5.485 3.4141,6.078 -0.7461,0.395 -3.9332,-1.669 -5.868,-2.57 -1.3195,-0.621 -2.0218,-1.038 -3.9175,-1.947 -1.4204,-0.683 -1.8809,-1.01 -3.8164,-2.699 -1.2098,-1.062 -2.6958,-2.251 -3.3,-2.646 -0.6055,-0.397 -1.2528,-0.83 -1.4446,-0.963 -0.4054,-0.281 -1.3734,-2.305 -1.607,-3.359 -0.0859,-0.401 -0.227,-1.478 -0.3125,-2.395 -0.0891,-1.006 -0.2457,-1.846 -0.3938,-2.126 -0.1796,-0.34 -0.2617,-0.976 -0.3125,-2.404 -0.066,-1.787 -0.039,-2.051 0.3317,-3.371 0.5273,-1.864 1.0926,-3.424 1.3543,-3.729 0.2808,-0.335 1.514,-0.847 2.591,-1.08 1.1348,-0.246 1.2445,-0.25 2.1105,-0.063 z m 17.3586,11.895 c 0.6,0.394 2.0594,0.967 2.6688,1.046 0.3078,0.042 0.7062,0.199 0.882,0.351 0.1707,0.155 0.4793,0.362 0.682,0.46 0.2028,0.102 0.6555,0.448 1.0071,0.772 0.573,0.531 0.632,0.644 0.5691,1.131 -0.039,0.305 0.0199,0.719 0.1328,0.945 0.1328,0.257 0.168,0.604 0.109,0.995 -0.0777,0.475 -0.0418,0.631 0.1649,0.788 0.2027,0.148 0.2457,0.311 0.1789,0.717 -0.0621,0.374 -0.0231,0.582 0.1367,0.71 0.1949,0.164 0.1906,0.207 -0.0469,0.382 -0.148,0.11 -0.2769,0.395 -0.2887,0.632 -0.0121,0.238 -0.0269,0.664 -0.0351,0.94 -0.016,0.45 -0.4762,0.415 -1.1586,0.847 -0.4254,0.274 -0.734,0.524 -1.0266,0.62 -0.6672,0.219 -1.8609,1.394 -1.6972,1.549 0.0671,0.066 0.2886,0.145 0.4875,0.172 0.3597,0.051 0.3554,0.058 -0.136,0.324 -0.7101,0.382 -2.407,0.601 -4.6273,0.601 -1.5723,0 -1.9938,-0.047 -2.3992,-0.27 -0.8243,-0.137 -1.6122,-2.106 -1.7758,-2.305 -0.0391,-0.726 -0.6676,-0.819 -0.866,-1.206 0.2144,-0.07 -0.4059,-0.023 -0.6125,-0.41 -0.0821,-0.155 -0.2496,-0.28 -0.3664,-0.28 -0.118,0 -0.2149,-0.105 -0.2149,-0.23 0,-0.129 -0.1996,-0.519 -0.4414,-0.87 -0.2418,-0.355 -0.4406,-0.714 -0.4406,-0.8 0,-0.086 -0.0778,-0.284 -0.1758,-0.441 -0.2258,-0.363 0.0551,-1.034 0.4336,-1.034 0.1437,0 0.4953,-0.202 0.7719,-0.444 1.4406,-1.261 2.0488,-1.842 2.0488,-1.959 0,-0.074 0.109,-0.21 0.2418,-0.308 0.1328,-0.093 0.2805,-0.433 0.3316,-0.745 0.07,-0.441 0.1914,-0.624 0.5114,-0.776 0.2257,-0.109 0.5421,-0.324 0.6941,-0.477 0.1516,-0.152 0.3746,-0.276 0.4914,-0.276 0.1207,0 0.5664,-0.16 0.9918,-0.359 0.4246,-0.195 0.8891,-0.39 1.0297,-0.433 0.1398,-0.043 0.2578,-0.199 0.2578,-0.34 0,-0.35 0.9629,-0.358 1.4863,-0.019 z m -0.3785,0.554 c -0.0472,0.074 0,0.304 0.0899,0.515 0.1086,0.238 0.1207,0.433 0.0347,0.518 -0.2457,0.247 -0.7691,-0.011 -0.925,-0.452 -0.1797,-0.522 -0.3742,-0.538 -0.6859,-0.058 -0.3008,0.456 -0.1797,1.002 0.2605,1.197 0.6364,0.285 2.1696,-0.397 2.1696,-0.967 0,-0.562 -0.7141,-1.132 -0.9438,-0.757 z m -0.4258,2.453 c -0.1984,0.2 -0.0859,0.301 0.27,0.231 0.3195,-0.059 0.3664,-0.016 0.3664,0.332 0,0.393 0.0121,0.397 0.6832,0.296 0.4797,-0.071 0.8152,-0.035 1.1347,0.117 0.2496,0.121 0.6442,0.293 0.87,0.383 0.3746,0.143 0.4066,0.21 0.3125,0.632 -0.1676,0.756 -0.3864,1.013 -0.7801,0.917 -0.3285,-0.083 -0.3434,-0.059 -0.2496,0.444 0.1359,0.721 -0.145,1.529 -0.7032,2.005 -0.3933,0.336 -0.4246,0.406 -0.2109,0.488 0.4066,0.155 1.1168,-0.449 1.2918,-1.105 0.1758,-0.651 0.3676,-0.827 0.6441,-0.596 0.1407,0.117 0.2618,0.078 0.4684,-0.153 0.4098,-0.448 0.3824,-1.583 -0.0508,-2.165 -0.1801,-0.246 -0.3277,-0.538 -0.3277,-0.647 0,-0.602 -1.4754,-1.136 -2.2512,-0.815 -0.3945,0.163 -0.4605,0.148 -0.6515,-0.141 -0.2067,-0.312 -0.6133,-0.421 -0.8161,-0.223 z m -5.3406,1.76 c -0.1019,0.039 -0.1836,0.203 -0.1836,0.362 0,0.219 0.0699,0.27 0.2805,0.203 0.1637,-0.05 0.3746,0.012 0.5234,0.161 0.2137,0.214 0.2176,0.273 0.0309,0.461 -0.2735,0.272 -0.9988,0.127 -1.3543,-0.266 -0.3387,-0.371 -0.6551,-0.363 -0.6551,0.019 0,0.165 -0.066,0.429 -0.148,0.585 -0.1329,0.247 -0.1059,0.286 0.2218,0.286 0.4133,0 0.6672,0.397 0.3746,0.581 -0.1011,0.062 -0.3117,0.082 -0.4636,0.043 -0.4063,-0.106 -0.3555,0.342 0.0699,0.62 0.4754,0.312 1.0379,0.086 1.2406,-0.503 0.1289,-0.367 0.2379,-0.449 0.5973,-0.449 0.866,0 1.2055,-1.17 0.5383,-1.841 -0.3477,-0.344 -0.6711,-0.422 -1.0727,-0.262 z m 10.6703,0.667 c 0,0.27 0.2617,0.491 0.4059,0.348 0.0508,-0.051 -0.0192,-0.203 -0.1559,-0.34 -0.2297,-0.231 -0.25,-0.231 -0.25,-0.008 z m -5.2984,0.507 c -0.1559,0.187 -0.1598,0.258 -0.0192,0.305 0.1008,0.035 0.1829,0.214 0.1829,0.397 0,0.41 0.3554,0.73 0.6711,0.609 0.157,-0.058 0.2,-0.187 0.1371,-0.39 -0.0551,-0.163 -0.0192,-0.394 0.0777,-0.511 0.098,-0.117 0.1367,-0.311 0.0898,-0.433 -0.1129,-0.3 -0.8859,-0.285 -1.1394,0.023 z m -4.7086,2.696 c -0.4336,0.258 -0.2887,0.453 0.2926,0.405 0.3707,-0.031 0.5496,-0.117 0.5496,-0.264 0,-0.27 -0.4918,-0.348 -0.8422,-0.141 z m 0.5734,0.898 c -0.2308,0.221 -0.3746,0.471 -0.3238,0.553 0.1707,0.281 0.6555,0.16 0.9051,-0.222 0.2105,-0.32 0.2148,-0.402 0.039,-0.554 -0.1679,-0.149 -0.2847,-0.106 -0.6203,0.223 z m -2.4433,1.037 c 0.016,0.3 0.4804,0.285 0.6484,0.179 0.2496,-0.152 0.1086,-0.047 -0.2027,-0.211 -0.3668,-0.198 -0.4485,-0.19 -0.4457,0.032 z m 11.975,-0.086 c -0.1758,0.179 -0.102,0.488 0.125,0.488 0.1207,0 0.2187,-0.129 0.2187,-0.293 0,-0.292 -0.157,-0.382 -0.3437,-0.195 z m -9.0446,1.221 c -0.3504,0.351 -0.3664,0.491 -0.0738,0.734 0.1828,0.152 0.2227,0.14 0.2227,-0.055 0,-0.141 0.1211,-0.237 0.2929,-0.237 0.3075,0 0.3934,0.214 0.1477,0.366 -0.2926,0.18 -0.1406,0.386 0.2539,0.339 0.3355,-0.039 0.4133,-0.124 0.4484,-0.515 0.0387,-0.393 -0.023,-0.503 -0.3937,-0.694 -0.5543,-0.289 -0.5422,-0.289 -0.8981,0.062 z m -4.4007,-6.175 c 0,0.183 -0.3747,0.471 -0.4805,0.367 -0.1399,-0.141 0.059,-0.496 0.2777,-0.496 0.1129,0 0.2028,0.058 0.2028,0.129 z m 10.7765,8.913 c -0.2699,0.27 -0.6164,0.579 -0.7691,0.422 -0.0391,-0.035 -0.0309,-0.164 0.016,-0.285 0.1019,-0.264 0.0117,-0.87 0.8121,-0.889 0.5813,-0.012 0.2297,0.464 -0.059,0.752"
   sodipodi:nodetypes="cccccccccsccscccccccsccccccccccccccccccccsccccccccccccccccccccccccccccccccccsccccsscscscsccccsccscccccccsccccsccccccccccccsccccsccccscsccccsccsccsccscccccccscccccccccccsscccsscccccscssccccc" /><path
   inkscape:connector-curvature="0"
   id="path96"
   style="fill:#4676b2;fill-opacity:1;fill-rule:nonzero;stroke:none;stroke-width:0.1"
   d="m 36.487194,57.638569 c 5.8882,-3.328 8.1703,0.467 16.5316,2.407 -0.2109,-0.403 -1.2215,-2.38 -1.5641,-2.879 -0.7062,-1.034 -0.7691,-1.288 -0.2886,-1.179 1.0218,0.231 5.7152,1.584 6.2074,1.787 0.9242,0.39 2.7898,0.687 4.1512,0.66 0.6941,-0.012 1.8261,0.023 2.5082,0.082 1.4593,0.121 2.2671,-0.051 2.9464,-0.617 0.4446,-0.379 0.4567,-0.422 0.4055,-1.369 -0.0738,-1.272 -0.4683,-1.81 -1.8766,-2.548 -0.5695,-0.3 -1.0031,-0.604 -0.9601,-0.674 0.043,-0.067 0.293,-0.168 0.5504,-0.223 0.8621,-0.18 0.4055,-2.743 1.2957,-3.219 1.358759,-1.054963 1.419756,-2.382252 2.3801,-3.179 0.1597,-0.222 0.2066,-0.718 0.4136,-0.986 0.2067,-0.27 3.293,-0.793 3.5067,-1.514 0.2148,-0.718 1.2847,-0.754 1.4015,-1.077 0.3395,-0.972 1.1856,-3.016 -0.4214,-3.827 -0.8082,-0.409 -4.0196,-1.428 -4.6438,-2.337 -1.0418,-1.518 -1.3965,-2.945 -2.6488,-3.69 -0.9949,-0.589 -1.3696,-3.086 -1.0578,-3.203 0.9328,-0.343 4.4328,-0.679 4.4328,-1.444 0,-0.788 -2.4781,-2.704 -4.4598,-3.44 -0.5734,-0.215 -1.0965,-0.559 -1.5531,-1.015 -2.516,-2.516 -3.5418,-3.418 -4.3188,-3.784 -0.4566,-0.219 -1.3265,-0.843 -1.9308,-1.392 -0.6012,-0.547 -1.5371,-1.312 -2.0797,-1.694 -1.8266,-1.292 -3.7656,-2.933 -4.975,-4.213 l -1.2016,-1.268 H 19.152793 c 10.713301,23.321 16.785101,33.901 17.334401,45.835 z m 11.3546,-34.311 c 0.4793,0.129 1.6153,0.777 3.1524,1.794 1.3265,0.874 2.9027,1.877 3.5078,2.232 0.6043,0.351 1.673,1.01 2.3723,1.467 0.8269,0.538 1.6691,0.944 2.4113,1.162 l 1.6379,0.239 1.0457,-0.024 c 1.1008,-0.023 -2.2742,5.118 -3.484,6.289 -1.4551,1.408 -3.5695,1.86 -5.6891,3.035 -0.8109,0.448 -0.1867,1.482 -0.0539,3.296 -0.1371,1.128 5.0559,2.536 5.7512,3.917 0.3156,0.628 4.1242,5.368 3.4758,5.852 -0.9949,0.741 -6.7891,-2.933 -7.3582,-3.148 -2.2004,-0.831 -4.3469,-1.99 -5.275,-2.844 -2.1305,-1.967 -4.8973,-4.139 -5.2637,-4.139 -0.1758,0 -0.168,0.25 0.027,0.608 0.0859,0.164 0.1289,0.328 0.0898,0.363 -0.1359,0.14 -2.0945,-3.768 -2.3601,-4.709 -0.1129,-0.406 -0.2497,-1.357 -0.3086,-2.118 -0.0579,-0.803 -0.2219,-1.693 -0.3856,-2.115 -0.2187,-0.558 -0.3047,-1.225 -0.3637,-2.867 -0.0777,-2.126 -0.0738,-2.157 0.4567,-4.05 0.2926,-1.045 0.5703,-2.09 0.6172,-2.321 0.1007,-0.522 0.8929,-1.107 2.2082,-1.634 1.6691,-0.671 2.2277,-0.714 3.7886,-0.285 z m 16.086,11.52 c 0.223,-0.015 0.6164,0.086 0.8781,0.219 0.2578,0.136 0.768,0.273 1.1316,0.304 0.3668,0.031 0.9129,0.078 1.2207,0.105 0.3047,0.024 0.7032,0.176 0.8778,0.332 0.1801,0.159 0.1371,0.515 0.4496,0.698 0.2457,0.144 0.8109,0.218 0.8738,0.328 0.066,0.105 0.1949,0.199 0.293,0.199 0.3113,0.012 0.8379,0.546 0.8379,0.854 0,0.163 0.059,0.335 0.1289,0.378 0.0707,0.043 0.1758,0.722 0.2305,1.51 0.0582,0.811 0.1949,1.576 0.3117,1.76 0.1129,0.179 0.207,0.518 0.207,0.76 0,0.239 0.0629,0.597 0.1367,0.796 0.0977,0.254 0.0821,0.438 -0.059,0.632 -0.1437,0.195 -0.1558,0.344 -0.0461,0.551 0.1211,0.221 0.0891,0.331 -0.1527,0.514 -0.1637,0.129 -0.3195,0.429 -0.3465,0.671 -0.08067,-0.02589 -0.562724,0.213789 -0.7383,0.304 -0.1636,0.082 -1.1664,0.78 -1.4043,0.952 -0.2417,0.168 -0.1328,0.293 -0.3945,0.426 -1.1734,0.597 -2.5551,0.272 -2.5551,0.409 0,0.082 0.0512,0.113 0.109,0.078 0.0629,-0.039 0.2696,0.012 0.4567,0.113 l 0.3433,0.184 -0.3824,0.3 c -0.4836,0.383 -0.4797,0.426 0.0738,0.534 0.3555,0.07 0.4254,0.138 0.3008,0.285 -0.2648,0.32 0.3703,1.148 -0.3469,1.249 -0.6562,0.09 -0.6789,0.082 -0.7609,-0.324 l -0.082,-0.421 -2.1504,-0.031 c -1.6262,-0.024 -3.0504,-0.313 -3.0504,-0.313 0,0 4.4906,3.141 -1.7797,-2.508 -0.3,-0.097 -4.3031,-2.465 -4.491,-3.316 -0.1746,-0.792 0.2656,-0.57 0.7812,0.394 0.4364,0.823 1.2364,0.936 1.6891,0.936 0.1289,0 0.1719,-0.09 0.1129,-0.242 -0.0621,-0.164 -0.027,-0.218 0.1137,-0.171 0.2136,0.073 0.2336,0.124 0.2609,0.854 0.0277,0.667 0.2816,0.523 0.3945,-0.222 0.1008,-0.668 -1.2328,-0.566 -1.4715,-0.566 -0.0699,0 -0.3546,-0.492 -0.639,-1.088 -0.4176,-0.882 -0.4887,-1.148 -0.3598,-1.385 0.086,-0.164 0.1559,-0.48 0.1598,-0.706 0,-0.559 0.1371,-0.737 0.6601,-0.87 0.2379,-0.059 0.7024,-0.258 1.0219,-0.441 0.3238,-0.183 0.8043,-0.433 1.0649,-0.554 0.2925,-0.137 0.4765,-0.327 0.4765,-0.499 0,-0.152 0.1328,-0.399 0.2926,-0.543 0.3504,-0.315 0.3785,-0.702 0.0738,-1.006 -0.3316,-0.332 -0.2765,-0.391 0.3867,-0.391 0.4793,0 0.718,-0.097 1.1465,-0.487 0.3438,-0.312 0.7653,-0.526 1.1356,-0.585 0.3277,-0.054 0.6754,-0.195 0.7761,-0.316 0.102,-0.125 0.2739,-0.223 0.3825,-0.223 0.1058,0 0.2699,-0.136 0.3597,-0.303 0.109,-0.211 0.2418,-0.274 0.4094,-0.204 0.1328,0.059 0.4246,0.098 0.6473,0.086 z m 0.4836,1.338 c 0.059,0.18 0.1207,0.461 0.141,0.624 0.0469,0.418 0.0469,0.422 0.2887,0.219 0.4171,-0.348 0.1836,-1.175 -0.3317,-1.175 -0.141,0 -0.1679,0.098 -0.098,0.332 z m -1.5442,0.246 c -0.2617,0.491 -0.1757,0.886 0.2297,1.072 0.3278,0.149 0.4137,0.133 0.5774,-0.089 0.1597,-0.222 0.1488,-0.304 -0.0899,-0.546 -0.1558,-0.152 -0.2847,-0.378 -0.2847,-0.499 0,-0.313 -0.2536,-0.274 -0.4325,0.062 z m 2.5629,2.357 c -0.0547,0.086 0.0699,0.147 0.2848,0.147 0.2027,0 0.3746,-0.066 0.3746,-0.147 0,-0.078 -0.1289,-0.145 -0.2848,-0.145 -0.1558,0 -0.3277,0.067 -0.3746,0.145 z m 0.9789,0.245 c 0.0469,0.25 0.8,0.59 0.9598,0.433 0.0473,-0.05 -0.0348,-0.222 -0.1785,-0.382 -0.3317,-0.367 -0.8512,-0.398 -0.7813,-0.051 z m -7.7636,1.171 c -0.3129,0.129 -0.2032,0.342 0.1796,0.342 0.5145,0 0.7372,0.477 0.3747,0.804 -0.3559,0.32 -1.1477,0.184 -1.4985,-0.265 -0.2816,-0.355 -0.3515,-0.324 -0.4844,0.206 -0.0777,0.309 -0.0269,0.407 0.2926,0.551 0.5035,0.231 0.4336,0.671 -0.1129,0.734 -0.2226,0.023 -0.4015,0.105 -0.4015,0.175 0,0.222 0.5816,0.46 0.8851,0.363 0.3207,-0.102 0.6403,-0.593 0.5153,-0.792 -0.0977,-0.16 0.2617,-0.308 0.7332,-0.308 0.4027,0 0.6523,-0.379 0.6523,-0.995 0,-0.652 -0.5543,-1.05 -1.1355,-0.815 z m 8.9113,0.203 c 0,0.471 -0.4414,1.041 -0.734,0.947 -0.218,-0.07 -0.2648,0.059 -0.3316,0.909 -0.07,0.858 -0.1321,1.03 -0.4914,1.315 -0.2258,0.183 -0.3668,0.378 -0.304,0.437 0.195,0.199 0.9051,-0.487 1.0528,-1.019 0.207,-0.729 0.4336,-0.939 0.7414,-0.682 0.2105,0.176 0.2734,0.164 0.4492,-0.078 0.234,-0.324 0.2649,-1.209 0.0582,-1.752 -0.168,-0.448 -0.4406,-0.495 -0.4406,-0.077 z m -11.6461,0.202 c 0.0496,0.129 0.1516,0.234 0.2336,0.234 0.1906,0 0.0699,-0.336 -0.1481,-0.41 -0.1058,-0.034 -0.1406,0.031 -0.0855,0.176 z m 8.2711,0.526 c -0.1949,0.129 -0.1949,0.16 0,0.289 0.3664,0.242 0.7609,0.18 0.7062,-0.105 -0.0589,-0.3 -0.3976,-0.39 -0.7062,-0.184 z m -4.9863,2.935 c 0,0.078 0.164,0.144 0.3668,0.144 0.2027,0 0.3664,-0.066 0.3664,-0.144 0,-0.082 -0.1637,-0.149 -0.3664,-0.149 -0.2028,0 -0.3668,0.067 -0.3668,0.149 z m 0.6246,0.87 c -0.4028,0.331 -0.4176,0.448 -0.0672,0.448 0.3086,0 0.6172,-0.27 0.6172,-0.542 0,-0.262 -0.1606,-0.234 -0.55,0.094 z m 0.4992,2.012 c -0.2309,0.231 -0.082,0.446 0.2687,0.378 0.3707,-0.07 0.4336,0.025 0.3746,0.586 -0.0308,0.32 0.0508,0.323 0.3477,0.028 0.3086,-0.305 0.2926,-0.434 -0.0902,-0.792 -0.3196,-0.297 -0.7141,-0.387 -0.9008,-0.2 z m 5.3406,-12.081 c -0.0187,0.171 -0.2176,0.14 -0.2844,-0.051 -0.0312,-0.094 0.0239,-0.148 0.1168,-0.117 0.0977,0.031 0.1719,0.109 0.1676,0.168 z m 1.8578,13.63 c -0.0508,0.082 -0.0469,0.203 -0.1406,0.203 -0.1051,-0.004 -0.0898,-0.062 0.043,-0.144 0.2804,-0.184 0.2105,-0.242 0.0976,-0.059 z m 7.0778,-5.084 c 0,0.125 0.0699,0.188 0.148,0.138 0.0816,-0.052 0.1129,-0.156 0.0668,-0.23 -0.125,-0.204 -0.2148,-0.164 -0.2148,0.092"
   sodipodi:nodetypes="cccccccccccccccccccccscccccccccccccccccccccccsccccccccccccccccccscccsccccccccsccccccccccccccsccccsccccccsccscccscccccccscccccsccsssccccccscccccsccsscsccccccccscsccccccssssscssccccccccccccccccccc" /><path
   inkscape:connector-curvature="0"
   id="path98"
   style="fill:#3a67ad;fill-opacity:1;fill-rule:nonzero;stroke:none;stroke-width:0.1"
   d="m 31.946494,52.344569 c 15.6258,-0.48 19.2426,-0.246 33.1481,1.42 -0.718,-0.366 -0.7801,-0.562 -0.2149,-0.687 0.7653,-0.172 -0.4992,-2.044 0.27,-2.434 1.505446,-0.789082 3.464563,-3.524461 3.1992,-3.718 -0.1758,-0.109 -0.1102,-0.281 0.3664,-0.975 0.654594,-0.953246 4.249026,-0.996824 5.0172,-2.103 0.5972,-2.395 -1.3414,-2.399 -2.2196,-5.145 -0.5074,-1.596 -1.3613,-0.761 -2.7425,-2.251 -0.7262,-0.784 -1.3774,-2.08 -1.3774,-2.08 0,0 -1.7289,-4.135 -1.8379,-4.272 -0.184,-0.218 1.6781,0.438 2.0637,0.511 0.816,0.156 1.9234,-0.823 2.0875,-1.848 0.0699,-0.43 -0.0121,-0.55 -0.866,-1.346 -1.0578,-0.98 -2.1617,-1.682 -3.4961,-2.22 -0.9129,-0.371 -1.3891,-0.761 -3.6867,-3.028 -1.2524,-1.236 -2.0723,-1.856 -2.4469,-1.86 -0.1289,0 -0.7953,-0.503 -1.4824,-1.116 -0.6871,-0.613 -1.6782,-1.42 -2.2004,-1.791 -1.8996,-1.342 -4.3469,-3.425 -5.2789,-4.491 l -0.9559,-1.091 -15.068,-0.008 c -3.2664,26.688 -6.0171,36.039 -2.2785,40.533 z m 15.1492,-29.236 c 1.0817,0.2 1.92,0.624 3.8825,1.954 1.7758,1.203 3.484,2.268 4.3308,2.697 0.3196,0.16 0.8512,0.507 1.1707,0.764 1.0649,0.851 2.7039,1.533 3.9602,1.647 0.4176,0.039 2.4465,-0.196 1.7562,0.074 0.1289,3.18 -2.1695,3.386 -3.7109,6.176 -0.648,1.267 -5.5992,2.792 -5.5992,3.44 0,0.297 0,0.301 0.2105,0.019 0.1989,-0.272 0.211,-0.264 0.3129,0.157 0.0578,0.242 0.1676,0.518 0.2418,0.612 0.0778,0.098 0.0938,0.469 0.0387,0.827 -0.0547,0.374 -0.016,1.019 0.0898,1.514 0.195,0.897 0.975,1.268 1.2328,1.178 0.2387,-0.086 0.1407,-0.004 -0.2187,-1.128 -0.2527,-0.78 -0.2918,-1.084 -0.1668,-1.208 0.093,-0.094 0.1668,-0.407 0.1668,-0.691 0,-0.555 0.3355,-1.179 0.632,-1.179 0.0942,0 0.6832,-0.213 1.3035,-0.475 0.9719,-0.41 1.1668,-0.554 1.3735,-1.015 0.1367,-0.297 0.2539,-0.835 0.2656,-1.201 0.027,-0.811 0.0891,-0.878 0.6125,-0.679 0.3625,0.136 0.4563,0.109 0.7609,-0.214 0.1868,-0.207 0.3977,-0.375 0.4606,-0.375 0.066,0 0.1906,-0.16 0.2805,-0.359 0.1398,-0.304 0.2378,-0.347 0.6554,-0.281 0.3434,0.059 0.5461,0.012 0.6832,-0.152 0.109,-0.128 0.2887,-0.234 0.4055,-0.234 0.1129,0 0.3977,-0.144 0.6363,-0.316 0.3074,-0.231 0.4793,-0.278 0.616,-0.164 0.1051,0.086 0.6715,0.133 1.3067,0.101 0.9488,-0.039 1.1597,-0.007 1.3703,0.227 0.148,0.159 0.5574,0.315 1.0019,0.378 0.5461,0.074 0.3395,0.23 0.929,0.664 0.4445,0.327 0.6589,0.542 0.6832,0.608 0.0269,0.067 0.714,0.577 0.7918,0.577 0.0781,0 0.125,0.215 0.3628,0.395 0.2965,0.218 0.8579,0.057 0.8579,0.335 0,0.222 0.0589,0.44 0.1328,0.483 0.0699,0.047 0.1797,0.727 0.2379,1.514 0.1058,1.459 0.2347,1.838 0.5781,1.705 0.1051,-0.043 0.2379,-0.004 0.2918,0.082 0.0508,0.086 -0.011,0.199 -0.136,0.25 -0.1957,0.074 -0.2265,0.288 -0.1796,1.244 0.0308,0.64 0.0976,1.201 0.1519,1.257 0.1676,0.167 0.1059,0.268 -0.3426,0.534 -0.2578,0.151 -0.472949,0.544269 -0.508091,0.379985 -0.148806,-0.695635 -2.028209,-1.394985 -2.215709,-1.214985 -0.9129,0.858 -3.2652,2.317 -3.4449,2.317 -0.1063,0 -0.2809,0.106 -0.3867,0.23 -0.1598,0.191 -0.1598,0.254 0.0121,0.355 0.1636,0.102 0.1558,0.192 -0.0512,0.503 -0.2105,0.324 -0.2148,0.379 -0.027,0.379 0.1211,0 0.4485,-0.109 0.7333,-0.246 0.2847,-0.137 0.5582,-0.203 0.6121,-0.152 0.1679,0.172 -0.2766,0.566 -1.0414,0.924 -0.4059,0.196 -0.9672,0.481 -1.2516,0.641 -0.2816,0.159 2.8715,1.295 2.4148,1.35 -0.7957,0.092 -0.832,0.082 -0.8777,-0.254 -0.043,-0.289 -0.141,-0.352 -0.5773,-0.364 -2.1817,-0.061 -2.6969,1.55 -2.6969,1.55 l -0.6981,2.973 c 0,0 -5.8683,-4.312 -7.5691,-5.033 -2.6379,-1.128 -3.652,-1.717 -4.9754,-2.887 -1.9773,-1.756 -2.9605,-2.567 -3.9551,-3.262 -0.9289,-0.651 -1.2176,-0.702 -0.9332,-0.168 0.086,0.165 0.1602,0.418 0.1559,0.562 0,0.391 -1.4281,-2.164 -2.0246,-3.62 -0.4024,-0.971 -0.5543,-1.631 -0.7059,-2.996 -0.1058,-0.964 -0.3008,-2.02 -0.4375,-2.349 -0.1871,-0.444 -0.2648,-1.169 -0.3078,-2.867 -0.0551,-2.071 -0.0281,-2.391 0.3035,-3.592 0.9641,-3.512 0.8672,-3.281 1.5735,-3.749 0.655,-0.434 2.3332,-1.05 3.5187,-1.296 0.043,-0.007 0.4723,0.058 0.9477,0.144 z m 17.4567,13.37 c 0.1246,0.569 0.1516,0.609 0.3555,0.484 0.2066,-0.129 0.1949,-0.566 -0.02,-0.785 -0.3086,-0.308 -0.4375,-0.191 -0.3355,0.301 z m -1.7012,0.211 c -0.1207,0.323 -0.098,0.444 0.152,0.689 0.2804,0.282 0.3125,0.286 0.5461,0.052 0.2308,-0.23 0.2308,-0.261 0,-0.519 -0.1368,-0.149 -0.2457,-0.351 -0.2457,-0.445 0,-0.32 -0.3004,-0.171 -0.4524,0.223 z m 3.5938,2.262 c -0.118,0.187 0.1867,0.418 0.5613,0.422 0.3398,0.003 0.3238,-0.243 -0.027,-0.434 -0.3593,-0.19 -0.4093,-0.19 -0.5343,0.012 z m -7.691,1.303 c -0.1829,0.12 -0.1868,0.145 -0.011,0.145 0.1168,0 0.3625,0.147 0.5492,0.319 l 0.3399,0.321 v -0.313 c 0,-0.172 -0.1289,-0.382 -0.2848,-0.468 -0.3394,-0.179 -0.3195,-0.179 -0.5973,-0.004 z m 8.9464,0.137 c 0,0.108 -0.1359,0.417 -0.3035,0.691 -0.2656,0.428 -0.3437,0.471 -0.6094,0.327 -0.2847,-0.152 -0.2964,-0.133 -0.2066,0.312 0.0508,0.261 0.0938,0.542 0.0938,0.624 0,0.078 0.105,0.059 0.2339,-0.047 0.1797,-0.152 0.2926,-0.156 0.5075,-0.019 0.4214,0.265 0.7918,-0.367 0.6828,-1.166 -0.0778,-0.574 -0.3985,-1.159 -0.3985,-0.722 z m -14.8843,0.155 c -0.0508,0.082 -0.0231,0.149 0.0629,0.149 0.0847,0 0.1558,-0.067 0.1558,-0.149 0,-0.077 -0.0281,-0.143 -0.0668,-0.143 -0.0351,0 -0.1012,0.066 -0.1519,0.143 z m 4.4207,0.765 c -0.0469,0.18 -0.07,0.328 -0.0508,0.332 0.016,0.004 0.2265,0.105 0.4683,0.23 0.6082,0.312 1.7868,0.21 1.9899,-0.171 0.2226,-0.413 0.0308,-0.61 -0.3438,-0.348 -0.4363,0.305 -1.0218,0.277 -1.4672,-0.074 -0.4636,-0.366 -0.4914,-0.363 -0.5964,0.031 z m 7.1636,-0.031 c 0.05,0.082 0.1907,0.148 0.3118,0.148 0.1207,0 0.1796,-0.066 0.1289,-0.148 -0.0473,-0.077 -0.1871,-0.145 -0.309,-0.145 -0.1207,0 -0.1785,0.068 -0.1317,0.145 z m -11.5023,0.234 c 0.016,0.172 0.043,0.207 0.0898,0.09 0.043,-0.109 0.0387,-0.234 -0.0121,-0.285 -0.0508,-0.046 -0.082,0.039 -0.0777,0.195 z m 4.8301,1.015 c -0.102,0.12 -0.2727,0.217 -0.3864,0.217 -0.2929,0 -0.2457,0.25 0.0629,0.329 0.4215,0.109 0.909,-0.141 0.909,-0.468 0,-0.352 -0.3238,-0.395 -0.5855,-0.078 z m 8.7437,0.483 c -0.0738,0.301 -0.2535,0.55 -0.4722,0.648 -0.1911,0.089 -0.3508,0.218 -0.3508,0.289 0,0.07 0.1168,0.066 0.2578,-0.008 0.4715,-0.254 0.7949,-0.722 0.7371,-1.07 -0.0469,-0.299 -0.0711,-0.28 -0.1719,0.141 z m -7.0578,1.058 c 0.05,0.078 0.152,0.144 0.2301,0.144 0.0777,0 0.1367,-0.066 0.1367,-0.144 0,-0.082 -0.1019,-0.149 -0.2269,-0.149 -0.1286,0 -0.1868,0.067 -0.1399,0.149 z m 0.4676,0.888 c -0.3035,0.352 -0.3074,0.43 -0.0309,0.43 0.2496,0 0.5774,-0.534 0.3977,-0.644 -0.066,-0.042 -0.2301,0.055 -0.3668,0.214 z m 0.4883,2.116 c -0.1567,0.186 -0.1137,0.222 0.2929,0.222 0.4286,0 0.4672,0.034 0.4016,0.37 -0.0473,0.235 -0.0121,0.351 0.0937,0.321 0.3157,-0.106 0.2688,-0.594 -0.0789,-0.859 -0.4207,-0.328 -0.4793,-0.332 -0.7093,-0.054 z m 5.8132,-0.286 c -0.5382,0.531 -0.9207,0.648 -0.9207,0.286 0,-0.137 1.1625,-0.874 1.3891,-0.882 0.0742,-0.004 -0.1367,0.265 -0.4684,0.596 z m -6.8707,-0.931 c 0.6321,0.26 0.7372,0.744 0.1129,0.507 -0.4687,-0.18 -0.7761,-0.414 -0.7761,-0.593 0,-0.172 0.0699,-0.164 0.6632,0.086"
   sodipodi:nodetypes="cccccccccccccccccsccccccccccccsccccccccsscccccscccscccccccscsccccccccscscccscccccccccccccccccccccccccccccccsccccccsccscccscccscccscssscccccccccscsccccccscscccsccccsssccscccscccccsccccsc" /><path
   inkscape:connector-curvature="0"
   id="path100"
   style="fill:#294c93;fill-opacity:1;fill-rule:nonzero;stroke:none;stroke-width:0.1"
   d="m 19.152793,22.130569 v 10.326 l 0.4172,0.928 c 0.932,2.087 1.1,2.832 1.0808,4.889 -0.0121,1.217 -0.1289,2.547 -0.3234,3.667 -0.168,0.971 -0.3707,2.75 -0.4496,3.959 -0.0778,1.214 -0.2176,2.532 -0.3117,2.934 -0.0899,0.405 -0.1637,1.096 -0.1559,1.541 0.0109,0.729 0.0969,0.955 0.9871,2.402 8.516801,13.155004 11.950801,16.791004 6.519201,-0.213 -0.5036,-1.561 -0.5063,-2.181 0,-4.576 0.2496,-1.195 0.4566,-2.202 0.4566,-2.236 0,-0.032 0.0937,-0.023 0.2066,0.02 0.1797,0.07 2.2864,3.573 2.2864,3.803 0,0.136 1.1824,1.704 1.9867,2.633 2.5238,3.737 20.148,1.109 29.7969,1.198 3.9644,0.036 4.3269,-2.622 3.3359,-0.257 -0.718,-0.368 -0.6633,0.054 -0.1016,-0.071 0.9367,-0.211 0.0586,-0.944 0.8739,-1.4 1.3074,-0.73 0.3515,-0.317 0.0859,-0.745 -0.102,-0.164 1.1934,-1.611 0.882,-1.428 -0.1101,0.07 0.0657,-0.195 -0.2148,0.027 -0.9949,0.777 0.7762,0.699 -0.1129,0.792 -0.7652,0.078 -0.8551,0.059 -0.925,-0.207 -0.0699,-0.273 -0.2336,-0.343 -1.9625,-0.398 -0.8,-0.022 -1.1668,4.085 -3.3441,3.757 -4.9235,-0.214 -2.9067,-1.381 -3.7727,-2.161 -0.9719,-0.316 -0.5773,-1.327 -2.4461,-2.126 -2.6418,-1.128 -3.6516,-1.717 -4.975,-2.887 -1.9777,-1.756 -2.9648,-2.567 -3.9594,-3.262 -0.9289,-0.651 -1.2176,-0.702 -0.9332,-0.168 0.0903,0.165 0.1602,0.418 0.1602,0.562 0,0.391 -1.4324,-2.164 -2.0289,-3.62 -0.3985,-0.971 -0.5543,-1.631 -0.702,-2.996 -0.1058,-0.964 -0.3047,-2.02 -0.4414,-2.349 -0.1871,-0.444 -0.2609,-1.169 -0.3078,-2.867 -0.0508,-2.071 -0.0238,-2.391 0.3035,-3.592 0.9641,-3.512 0.8711,-3.281 1.5735,-3.749 0.5812,-0.387 2.196,-0.995 3.2339,-1.222 0.5696,-0.124 1.9938,0.176 2.8329,0.606 0.4054,0.202 1.4312,0.841 2.2824,1.418 1.7707,1.203 3.4797,2.268 4.3265,2.693 0.3239,0.164 0.8512,0.507 1.1746,0.768 1.104,0.882 2.8477,1.608 3.8747,1.612 0.6242,0 3.5308,-0.394 2.5242,0.015 -0.9403,0.382 -0.8004,2.945 -1.8379,3.968 -0.8274,0.815 -2.2477,1.178 -2.8328,2.804 -0.3235,0.898 -3.6985,1.459 -4.6895,2.083 -0.9398,0.589 -1.3933,2.973 -1.0418,3.063 0.1988,0.054 1.9469,-1.689 2.1574,-2.048 0.2149,-0.362 0.3985,-0.499 0.6793,-0.499 0.6434,0 0.9868,-0.266 0.8778,-0.686 -0.0629,-0.266 -0.0387,-0.352 0.0972,-0.301 0.4414,0.156 1.0227,0.342 1.4942,-0.683 0.4883,-1.05 1.3742,-1.81 1.8496,-1.627 0.1168,0.043 0.0941,-0.542 0.3906,-0.741 0.2926,-0.199 0.6434,-0.362 0.784,-0.362 0.1371,0 0.3586,-0.125 0.4996,-0.274 0.1438,-0.16 0.5504,-0.316 0.968,-0.371 0.3972,-0.053 0.7558,-0.155 0.8027,-0.229 0.0473,-0.074 0.7492,-0.102 1.5652,-0.063 1.2207,0.058 1.9161,-0.433 2.4461,-0.136 0.3547,0.199 0.5614,1.349 0.7184,1.349 0.2887,0 -0.1641,0.113 0.5031,0.714 0.1989,0.18 0.6516,0.542 1.0059,0.808 0.5273,0.394 0.6324,0.549 0.5785,0.846 -0.0398,0.203 1.4473,0.89 1.5762,1.358 0.1675,0.612 0.1906,0.94 0.0859,1.174 -0.1488,0.327 -0.0121,0.983 0.2098,0.987 0.0629,0 0.2105,0.062 0.3285,0.136 0.1828,0.118 0.1789,0.176 -0.043,0.418 -0.2187,0.242 -0.2308,0.347 -0.075,0.706 0.0981,0.234 0.2778,0.542 0.3985,0.687 0.3628,0.429 -0.1368,1.615 -0.784,1.86 -0.1957,0.075 0.4367,-2.644 0.3156,-2.2 -0.2766,1.042 -0.2418,1.21 0.277,1.315 0.3863,0.079 0.523,0.02 0.8937,-0.386 0.843,-0.925 0.5195,0.69 0.8191,-1.713 0.1875,-1.479 -1.2488,-2.212 -1.732,-3.62 -0.1598,-0.456 -1.807,-0.438 -1.8539,-0.648 -0.1129,-0.538 -0.7519,-0.627 -1.716,-1.494 -0.4524,-0.402 -0.8309,-2.137 -1.4512,-2.481 -0.6172,-0.343 -1.7949,-3.765 -1.7949,-3.808 0,-0.043 1.9777,0.515 2.2394,0.554 0.8739,0.129 1.9508,-0.811 2.1184,-1.848 0.0699,-0.43 -0.0121,-0.55 -0.866,-1.346 -1.0578,-0.98 -2.1652,-1.682 -3.4957,-2.22 -0.9129,-0.371 -1.3934,-0.761 -3.6879,-3.028 -1.2516,-1.236 -2.0715,-1.86 -2.4461,-1.86 -0.1328,0 -0.8,-0.503 -1.4863,-1.116 -0.6832,-0.617 -1.6739,-1.42 -2.1961,-1.787 -1.9867,-1.4 -4.2184,-3.292 -5.209,-4.42 l -1.027,-1.17 -15.071,-0.008 -15.0723,-0.004 v 10.327 z m 45.379301,14.102 c 0.0511,0.129 0.0902,0.359 0.0902,0.515 0,0.156 0.0586,0.281 0.1328,0.281 0.2188,0 0.3164,-0.445 0.1559,-0.745 -0.1828,-0.335 -0.5028,-0.383 -0.3789,-0.051 z m -1.6031,0.405 c -0.1329,0.524 0,0.831 0.3667,0.831 0.3747,0 0.3747,-0.16 0.0161,-0.752 l -0.2848,-0.468 z m 3.5511,2.248 c -0.1488,0.152 0.2028,0.491 0.5074,0.491 0.3586,0 0.3543,-0.242 -0.0121,-0.437 -0.3355,-0.179 -0.3707,-0.183 -0.4996,-0.054 z m -7.3703,1.681 c 0.4281,0.336 0.5852,0.308 0.4402,-0.07 -0.0539,-0.136 -0.2535,-0.242 -0.4644,-0.242 h -0.3703 z m 8.6027,0 c -0.0121,0.215 -0.1089,0.469 -0.2296,0.569 -0.1211,0.102 -0.2188,0.274 -0.2188,0.387 0,0.234 -0.2348,0.269 -0.3668,0.055 -0.1875,-0.304 -0.3703,-0.137 -0.2773,0.257 0.1246,0.515 0.1715,0.562 0.3703,0.367 0.1179,-0.121 0.2387,-0.118 0.4457,0.007 0.589,0.36 0.909,-0.674 0.4914,-1.587 l -0.2027,-0.437 z m -10.4136,0.691 c -0.2149,0.409 -0.2258,0.398 0.3945,0.601 0.7219,0.237 1.6461,0.156 1.8488,-0.164 0.1918,-0.305 0.0118,-0.534 -0.234,-0.293 -0.2925,0.293 -1.2402,0.211 -1.5601,-0.132 l -0.2895,-0.309 z m 7.1754,0.027 c 0,0.078 0.066,0.144 0.148,0.144 0.0817,0 0.1445,-0.066 0.1445,-0.144 0,-0.081 -0.0668,-0.149 -0.1445,-0.149 -0.082,0 -0.148,0.068 -0.148,0.149 z m -6.8508,1.307 c -0.4996,0.28 -0.4926,0.452 0.0269,0.452 0.3504,0 0.6672,-0.256 0.6672,-0.542 0,-0.25 -0.1168,-0.234 -0.6941,0.09 z m 8.298,1.194 c -0.3273,0.285 -0.3273,0.293 -0.023,0.144 0.175,-0.086 0.3629,-0.223 0.4097,-0.301 0.1438,-0.233 -0.0121,-0.171 -0.3867,0.157 z m -5.9808,1.225 c -0.2348,0.28 -0.1637,0.417 0.1207,0.241 0.1051,-0.066 0.1679,-0.203 0.1371,-0.3 -0.043,-0.128 -0.118,-0.113 -0.2578,0.059 z m 0.4953,2.001 c -0.1367,0.219 0.023,0.339 0.3008,0.23 0.1328,-0.05 0.1949,-0.156 0.1437,-0.238 -0.1168,-0.191 -0.3234,-0.187 -0.4445,0.008 z m 0.6363,0.569 c -0.043,0.289 -0.0121,0.437 0.093,0.403 0.2148,-0.071 0.2887,-0.539 0.1137,-0.714 -0.0899,-0.09 -0.1637,0.018 -0.2067,0.311" /><path
   inkscape:connector-curvature="0"
   id="path102"
   style="fill:#323232;fill-opacity:1;fill-rule:nonzero;stroke:none;stroke-width:0.1"
   d="m 18.843793,22.044569 v 9.803 l 0.7492,1.327 c 0.882,1.56 1.1707,2.917 1.166801,4.134 0,0.613 0.0117,1.214 0.0348,1.335 0.0551,0.308 -0.1438,2.118 -0.4633,4.178 -0.1527,0.967 -0.3168,2.571 -0.3676,3.562 -0.0539,0.99 -0.1949,2.271 -0.3117,2.84 -0.1168,0.569 -0.2266,1.076 -0.2336,1.132 -0.043,0.21 0.2336,0.994 0.4715,1.338 0.616,0.889 1.6578,2.769 2.064401,3.725 0.2418,0.573 0.6782,1.471 0.9707,1.998 0.2887,0.522 0.7145,1.326 0.9411,1.786 0.2847,0.585 0.839,1.248 1.8218,2.2 0.7762,0.749 1.6621,1.733 1.9707,2.181 0.8032,1.171 2.0868,2.485004 2.4262,2.481004 0.4453,0 1.2137,-0.530004 1.5371,-1.061004 0.3516,-0.577 0.3746,-1.455 0.0711,-2.899 -0.243,-1.158 -0.5816,-1.724 -1.9789,-3.296 -1.4473,-1.634 -2.2004,-2.704 -2.2043,-3.132 0,-0.371 -0.3933,-1.986 -0.9519,-3.909 -0.2309,-0.792 -0.2336,-1.003 -0.0547,-2.126 0.1136,-0.718 0.1797,-2.037 0.1566,-3.117 -0.0238,-1.093 0.0149,-1.869 0.0969,-1.869 0.0738,0 0.2535,0.179 0.3984,0.402 0.1438,0.222 0.3746,0.483 0.5145,0.585 0.1367,0.098 0.7301,1.057 1.3156,2.126 1.1117,2.032 1.6848,2.879 3.1211,4.588 0.4715,0.561 1.1629,1.568 1.5371,2.235 1.0688,1.919 1.3027,2.134 3.5309,3.265 1.1,0.558 2.8207,1.479 3.8195,2.04 1.0031,0.562 2.4394,1.264 3.1914,1.557 1.3113,0.507 1.4203,0.585 2.5289,1.803 0.6395,0.698 1.5371,1.833 2.0016,2.515 0.9672,1.441004 1.4664,2.010004 2.4812,2.821004 0.4016,0.32 1.0028,0.959 1.3383,1.424 0.7883,1.076 1.6621,1.821 2.8207,2.392 1.1828,0.581 1.5414,0.483 2.0719,-0.546 0.3125,-0.613 0.3742,-0.921 0.3625,-1.904 -0.011,-1.194 -0.2258,-1.869 -1.6153,-4.991004 -0.1558,-0.358 -0.2605,-0.966 -0.2687,-1.564 -0.0117,-0.857 -0.0629,-1.041 -0.4523,-1.52 -0.2458,-0.305 -0.804,-0.855 -1.2415,-1.226 -0.6785,-0.577 -2.3093,-1.353 -2.0558,-0.979 0.164,0.242 0.9441,1.884 1.2996,1.99 l 1.2246,0.366 -0.5344,-0.589 c -0.7679,-0.843 -1.6031,-1.981 -1.8258,-2.493 -0.1058,-0.242 -0.5503,-1.003 -0.9828,-1.692 -0.4375,-0.687 -0.7961,-1.3 -0.7961,-1.355 0,-0.057 0.1086,-0.105 0.2414,-0.105 0.3438,0 4.8657,1.253 6.3598,1.76 1.6192,0.554 2.8485,0.76 4.311,0.729 0.6562,-0.012 1.7839,0.023 2.5089,0.082 1.4594,0.113 2.2864,-0.035 2.9145,-0.53 0.3437,-0.27 0.3867,-0.403 0.3867,-1.209 0,-1.327 -0.3746,-1.807 -2.0676,-2.657 -0.7343,-0.368 -1.5222,-0.667 -1.748,-0.667 -0.2309,0 -0.5195,-0.039 -0.6481,-0.09 -0.4484,-0.172 -0.055,-0.352 0.7801,-0.352 0.4723,0 1.2375,-0.133 1.7168,-0.296 0.4766,-0.164 0.5465,-1.482 1.0688,-1.646 -0.1707,-0.453 -0.2887,-0.387 -1.1586,-0.608 0,-0.133 -0.6082,-0.231 -2.1696,-0.348 -1.4191,-0.106 -1.0136,-0.07 -1.4863,-0.25 -0.2336,0.893 -0.4055,1.05 0.2109,2.314 -0.0468,0.077 -0.2148,0.14 -0.3664,0.14 -0.1918,0 0.2575,0.569 0.3157,0.718 0.0468,0.121 -1.2368,-0.316 -1.3305,-0.316 -0.3586,0 -2.1027,-0.893 -3.0117,-1.541 -0.5313,-0.379 -1.7051,-1.003 -2.611,-1.389 -2.9804,-1.264 -4.4168,-2.025 -5.3406,-2.82 -3.3051,-2.832 -4.8383,-4.031 -4.9832,-3.886 -0.043,0.043 0.0242,0.461 0.141,0.929 l 0.2188,0.85 -0.4098,-0.5 c -0.5273,-0.646 -2.4039,-4.361 -2.7785,-5.504 -0.1598,-0.483 -0.3668,-1.439 -0.4566,-2.126 -0.0899,-0.682 -0.2567,-1.646 -0.3704,-2.134 -0.3316,-1.444 -0.3586,-4.736 -0.0511,-6.336 0.141,-0.748 0.3636,-1.563 0.4925,-1.817 0.1247,-0.254 0.2258,-0.628 0.2258,-0.831 0,-0.82 1.6078,-1.877 3.7227,-2.447 0.8848,-0.237 1.1117,-0.249 1.9035,-0.085 1.0578,0.214 2.1574,0.764 3.9836,1.982 1.9863,1.326 3.7344,2.419 4.4836,2.801 0.3664,0.187 0.7562,0.444 0.8621,0.573 0.3434,0.414 1.8219,1.225 2.6957,1.474 0.7449,0.215 1.0457,0.227 2.2941,0.082 1.6622,-0.191 3.8547,-0.026 5.6024,0.426 1.023,0.262 1.0969,0.262 1.5144,0.024 0.5582,-0.321 1.1008,-1.12 1.1008,-1.619 0,-0.777 -2.1586,-2.517 -4.1054,-3.313 -1.1387,-0.468 -1.65,-0.874 -3.9481,-3.156 -1.1629,-1.154 -1.9199,-1.755 -2.2086,-1.755 -0.2535,0 -1.3223,-0.768 -1.9894,-1.424 -0.32,-0.32 -1.3735,-1.163 -2.3414,-1.877 -0.968,-0.713 -2.1575,-1.623 -2.6411,-2.02 -1.0187,-0.836 -3.0394,-2.973 -2.9773,-3.14 0.0238,-0.067 -6.7691,-0.133 -15.0992,-0.157 l -15.450801,-0.035 z m 26.929701,24.885 0.0898,0.437 -0.2226,-0.367 c -0.25,-0.405 -0.32,-0.878 -0.0973,-0.651 0.0742,0.078 0.1789,0.339 0.2301,0.581 z m 0.4254,0.89 c 0.0508,0.129 0.0859,0.343 0.0859,0.475 0,0.176 -0.066,0.141 -0.2187,-0.121 -0.1129,-0.202 -0.211,-0.413 -0.2149,-0.475 -0.0109,-0.208 0.2578,-0.114 0.3477,0.121 z m 0.3824,1.244 c 0,0.168 -0.0668,0.261 -0.1488,0.211 -0.0778,-0.051 -0.1438,-0.184 -0.1438,-0.301 0,-0.116 0.066,-0.21 0.1438,-0.21 0.082,0 0.1488,0.133 0.1488,0.3 z m 19.3602,2.274 c 0,0.023 -0.3555,0.145 -0.7918,0.273 -0.5274,0.153 -1.3266,0.227 -2.3844,0.214 -1.1465,-0.01 -1.4473,-0.05 -1.0766,-0.131 0.2805,-0.067 0.7102,-0.184 0.952,-0.266 0.3785,-0.129 3.3008,-0.206 3.3008,-0.09 z m -3.0165,-20.895 c -0.0546,0.095 -0.2804,0.125 -0.5183,0.079 -0.3125,-0.063 -0.4563,-0.016 -0.5621,0.183 -0.0781,0.148 -0.5656,1.128 -0.5656,1.128 l -0.2426,0.354 c 0,0 0.9679,-0.07 1.0308,-0.163 0.1989,-0.289 2.0446,-0.843 3.4719,0.195 0.5113,0.371 0.8781,0.226 0.9289,0.171 0.0508,-0.05 0.0309,-0.557 -0.4176,-1.003 -0.6281,-0.627 -0.9089,-0.811 -1.2566,-0.811 -0.2457,0 -0.4871,-0.065 -0.5383,-0.147 -0.1246,-0.2 -1.2055,-0.188 -1.3305,0.014 z m 3.6411,5.447 c 0.2964,0 0.725,0.777 1.1035,0.73 0.3945,-0.047 0.3984,-0.052 0.125,-0.36 -0.2688,-0.311 -1.4555,-0.37 -1.2285,-0.37 z m 1.8097,0.843 c -0.098,0.253 0.3516,0.701 0.8778,0.877 0.4336,0.144 0.4687,-0.055 0.0898,-0.464 -0.5383,-0.573 -0.8547,-0.71 -0.9676,-0.413" /><path
   inkscape:connector-curvature="0"
   id="path2893"
   d="m 62.996475,38.478769 c -0.06197,0.0394 -2.181607,5.76284 -2.181607,5.89076 0,0.0863 1.148287,-0.007 1.148287,-0.007 l 1.657828,-4.57862 1.506014,4.61722 0.516691,0.016 c 0.284191,0.009 0.538158,-0.005 0.564396,-0.0316 0.06531,-0.0653 -1.928104,-5.79247 -2.046967,-5.881 -0.102483,-0.0763 -1.052051,-0.0973 -1.164642,-0.0256 z"
   style="fill:#000000;fill-opacity:1;stroke-width:0.05549699"
   sodipodi:nodetypes="cscccccccc" /><path
   inkscape:connector-curvature="0"
   id="path2891"
   d="m 61.679001,29.791519 c -0.117544,0.17936 -3.139507,6.36872 -3.139507,6.43006 0,0.0302 0.527984,0.0451 1.287641,0.0363 l 1.287645,-0.0148 2.432887,-5.45525 2.457088,5.45525 1.24436,0.0151 c 0.684398,0.008 1.265003,-0.006 1.290232,-0.0309 0.04085,-0.0409 -2.984362,-6.31591 -3.128831,-6.48998 -0.04507,-0.0543 -0.4704,-0.0705 -1.854062,-0.0705 h -1.795576 z m -6.600903,8.20278 c -1.735891,0.85155 -3.190603,1.57686 -3.232702,1.6118 -0.10691,0.0887 -0.113718,3.61305 -0.0072,3.70071 0.147698,0.12152 6.441501,3.17094 6.486799,3.14295 0.08022,-0.0496 -0.02079,-2.55634 -0.02079,-2.55634 l -5.397819,-2.43297 c 0,0 3.144737,-1.45165 5.438706,-2.44581 l 0.01476,-1.28872 c 0.01175,-1.0136 -1.11e-4,-1.28778 -0.05549,-1.28431 -0.03871,0.002 -1.490666,0.70114 -3.226554,1.55269 z m 13.685692,-0.26868 0.01476,1.28841 5.455106,2.43093 -5.455106,2.46028 -0.01476,1.28846 c -0.0081,0.70866 0.006,1.28847 0.03127,1.28847 0.06106,0 6.401027,-3.10164 6.490637,-3.17535 0.0529,-0.0435 0.06938,-0.48362 0.06938,-1.85264 v -1.79558 l -0.124865,-0.0816 c -0.175894,-0.11495 -6.37273,-3.13977 -6.432364,-3.13977 -0.02741,0 -0.04236,0.56998 -0.03407,1.28841 z m -10.224296,8.96995 c 0,0.0596 3.024804,6.25648 3.139766,6.43236 l 0.08161,0.12487 h 1.801092 1.801094 l 0.08007,-0.12487 c 0.105103,-0.1639 3.141321,-6.38811 3.141321,-6.43964 0,-0.0217 -0.572921,-0.0396 -1.273158,-0.0396 -0.950493,0 -1.315519,0.0686 -1.315519,0.0686 l -2.424455,5.4146 -2.454907,-5.4554 -1.288458,-0.0148 c -0.718463,-0.008 -1.288458,0.007 -1.288458,0.0341 z"
   style="fill:#000000;fill-opacity:1;stroke-width:0.05549699"
   sodipodi:nodetypes="cscccccccsccccccccccccccccccscsccsccccccccsscccccc" /><path
   inkscape:connector-curvature="0"
   id="path2893-5"
   d="m 110.76198,35.295029 c -0.34775,0.0719 -0.96183,0.29359 -1.36463,0.49259 -1.73171,0.85544 -2.7451,2.64808 -2.7451,4.85595 0,1.65119 0.4445,2.88367 1.4085,3.90557 1.19151,1.26308 3.08363,1.84038 5.04967,1.54074 2.27062,-0.3461 3.77006,-1.6741 4.33129,-3.83608 0.18806,-0.72454 0.18414,-2.34248 -0.008,-3.114 -0.46077,-1.8543 -1.82586,-3.26048 -3.65037,-3.7603 -0.72584,-0.19886 -2.26138,-0.24176 -3.02175,-0.0845 z m 2.50916,2.23498 c 1.01761,0.43224 1.63025,1.59299 1.63318,3.09435 0.003,1.32881 -0.4246,2.35853 -1.21638,2.93209 -0.49907,0.36153 -0.97477,0.48054 -1.74914,0.43759 -1.08414,-0.0602 -1.74463,-0.5305 -2.2473,-1.60035 -0.24265,-0.51638 -0.28427,-0.71704 -0.31467,-1.51668 -0.0285,-0.75282 -1.8e-4,-1.034 0.15559,-1.53551 0.54186,-1.74525 2.10805,-2.50409 3.73874,-1.81149 z m 22.87188,-2.23703 c -1.24444,0.23008 -2.13264,0.69729 -2.93146,1.54194 -1.27578,1.34894 -1.6841,3.78879 -0.98675,5.89634 0.25092,0.75829 0.96683,1.8117 1.55018,2.28095 2.24269,1.80399 5.80594,1.44328 7.19981,-0.72886 0.16015,-0.24945 0.39443,-0.76833 0.52076,-1.15304 0.20071,-0.61125 0.23082,-0.86461 0.23862,-2.00915 l 0.008,-1.30971 -3.54522,-0.0236 -3.54522,-0.0236 v -0.25858 c 0,-0.75671 0.57779,-1.55632 1.39033,-1.9241 0.42223,-0.19112 0.58756,-0.20882 1.95165,-0.20882 1.27432,0 1.60047,0.0299 2.25007,0.20763 0.60784,0.16611 0.77423,0.18416 0.83238,0.0903 0.0402,-0.0644 0.16394,-0.49572 0.27553,-0.95824 0.23902,-0.99085 0.28548,-0.92443 -0.82888,-1.18449 -1.59547,-0.37232 -3.17849,-0.45723 -4.38072,-0.23494 z m 2.93552,6.76522 c 0,0.78549 -0.40291,1.50117 -1.03871,1.84502 -0.18672,0.10091 -0.49598,0.14599 -0.99447,0.14485 -0.62148,-10e-4 -0.7897,-0.0378 -1.19304,-0.25725 -0.53066,-0.28882 -0.88071,-0.73542 -1.07035,-1.36554 -0.24843,-0.82553 -0.4216,-0.7622 2.08363,-0.7622 h 2.21294 z m 6.45816,-6.8021 c -0.78712,0.10676 -2.03958,0.4168 -2.15668,0.53388 -0.0907,0.0907 0.24989,1.78576 0.38678,1.92511 0.0387,0.0392 0.3713,-0.0114 0.73938,-0.11083 1.85643,-0.50542 4.10025,-0.4063 4.67599,0.20655 0.27078,0.28824 0.27945,0.72307 0.02,0.99934 -0.24097,0.25652 -0.62071,0.40508 -1.99434,0.78004 -1.19672,0.32668 -2.3458,0.8336 -2.80642,1.23801 -0.17571,0.15429 -0.43919,0.49666 -0.58557,0.76089 -0.24485,0.442 -0.26614,0.55264 -0.26614,1.38366 0,0.7536 0.0324,0.96379 0.19563,1.26859 0.43003,0.80318 1.36205,1.41554 2.63861,1.73363 0.80416,0.20037 3.05052,0.20053 3.95206,2.6e-4 0.76438,-0.16983 1.56917,-0.49972 1.56748,-0.64259 -0.003,-0.24665 -0.52401,-1.81235 -0.61305,-1.84202 -0.0544,-0.0182 -0.39561,0.0767 -0.75841,0.21038 -0.551,0.20326 -0.85342,0.25067 -1.83644,0.28799 -1.07851,0.0412 -1.21649,0.0275 -1.65173,-0.15966 -0.56202,-0.24176 -0.82958,-0.5466 -0.82958,-0.94513 0,-0.49551 0.3606,-0.70393 2.03968,-1.17888 2.0247,-0.57272 3.07972,-1.2031 3.57925,-2.13862 0.17797,-0.33333 0.20696,-0.52039 0.20696,-1.336 0,-0.87033 -0.02,-0.98294 -0.24662,-1.36792 -0.65667,-1.11705 -1.90572,-1.6026 -4.26958,-1.65976 -0.74517,-0.0181 -1.63938,0.007 -1.98712,0.0531 z m -62.798228,0.19307 c -0.0895,0.10791 -0.10856,1.71213 -0.0903,7.57867 l 0.0231,7.44183 h 3.47748 c 3.02862,0 3.57637,-0.0212 4.24379,-0.16513 3.61127,-0.77803 5.59668,-3.18529 5.59997,-6.78983 0.003,-3.74019 -1.68956,-6.40907 -4.81005,-7.58284 -1.03594,-0.38967 -2.02783,-0.49428 -5.30325,-0.55939 -2.64348,-0.0526 -3.04167,-0.0426 -3.14072,0.0767 z m 6.75223,2.64182 c 2.66258,0.6184 3.88907,2.35522 3.76627,5.33342 -0.0664,1.60932 -0.43156,2.51129 -1.36054,3.36033 -1.06938,0.97736 -2.00954,1.2296 -4.61866,1.2392 l -1.8968,0.007 -0.0234,-4.96783 c -0.013,-2.73229 -0.002,-5.0235 0.0241,-5.09155 0.0706,-0.18469 3.19033,-0.0941 4.10929,0.11946 z m 8.96391,-2.67565 c -0.0897,0.0568 -0.10872,1.16954 -0.0903,5.25998 l 0.0234,5.18784 0.84459,0.026 c 0.50604,0.0163 0.891248,-0.013 0.960958,-0.0705 0.064,-0.0531 0.1621,-0.27823 0.21802,-0.50029 0.0558,-0.22205 0.12777,-0.40375 0.15967,-0.40375 0.0319,0 0.32594,0.18273 0.65355,0.40606 0.8539,0.58212 1.51177,0.79883 2.44726,0.80612 0.80837,0.007 1.64044,-0.15575 1.84385,-0.35923 0.10107,-0.10107 0.0838,-0.29628 -0.10498,-1.18699 -0.12418,-0.58629 -0.26231,-1.11176 -0.30672,-1.1677 -0.0583,-0.0732 -0.23823,-0.0373 -0.6436,0.12809 -0.38653,0.15787 -0.7932,0.24259 -1.29872,0.27058 -0.65585,0.0363 -0.79344,0.0147 -1.26426,-0.20107 -0.2906,-0.13297 -0.61988,-0.3279 -0.73181,-0.433 l -0.20352,-0.19118 v -3.76819 c 0,-3.35278 -0.0163,-3.77423 -0.1429,-3.82302 -0.21131,-0.0811 -2.232038,-0.064 -2.364358,0.02 z m 21.587418,0 c -0.0897,0.0568 -0.10872,1.16954 -0.0903,5.25998 l 0.0236,5.18784 0.9151,0.0255 0.91509,0.0254 0.19351,-0.328 c 0.10938,-0.18537 0.24171,-0.30681 0.30427,-0.2793 1.44442,0.63497 2.77201,0.92412 3.85919,0.84051 1.77818,-0.13671 2.75598,-0.85252 3.26947,-2.39334 0.19169,-0.57527 0.2016,-0.76356 0.23288,-4.43041 0.0265,-3.09894 0.01,-3.84402 -0.0864,-3.90513 -0.19622,-0.12451 -2.27526,-0.095 -2.44771,0.0348 -0.13477,0.10139 -0.15283,0.47773 -0.17534,3.68071 l -0.0251,3.56779 -0.25229,0.42919 c -0.34076,0.57962 -0.79094,0.80612 -1.6023,0.80612 -0.54876,0 -1.51282,-0.20224 -2.18743,-0.4589 l -0.24838,-0.0944 v -3.92815 c 0,-3.7912 -0.007,-3.9314 -0.17468,-4.02165 -0.20395,-0.10921 -2.25541,-0.12483 -2.42285,-0.0186 z"
   style="fill:#449ec9;stroke-width:0.09032393"
   sodipodi:nodetypes="ccsccccccccccccccccccccccccccscsccccccsccccscscccccccccsccccccccsccscccccccscsccccccsccccccccccccsccccccccccsccccccccccccccccccsccsccc" /><path
   inkscape:connector-curvature="0"
   id="path1896"
   d="m 80.759204,11.785659 c -0.30691,0.18716 -0.63759,0.58111 -0.79232,0.94391 -0.16851,0.39511 -0.22591,1.37098 -0.1127,1.91565 0.27756,1.33529 1.49837,1.94793 2.489518,1.2493 0.18222,-0.12844 0.35201,-0.2128 0.37733,-0.18748 0.0254,0.0254 0.0461,0.50001 0.0461,1.05485 v 1.00881 h 0.31537 0.31537 l -0.0206,-3.00678 -0.0206,-3.00679 -0.25553,-0.0246 c -0.21301,-0.0205 -0.26828,0.009 -0.33214,0.17688 -0.0881,0.23162 -0.1757,0.25304 -0.32064,0.0784 -0.30332,-0.36548 -1.237868,-0.47731 -1.689128,-0.20212 z m 1.403568,0.59791 c 0.71654,0.4695 0.7587,2.36652 0.0663,2.98138 -0.0974,0.0865 -0.32475,0.16254 -0.542018,0.18124 -0.73576,0.0634 -1.13175,-0.429 -1.18466,-1.47293 -0.0165,-0.32582 0.01,-0.73986 0.0582,-0.92008 0.0971,-0.36071 0.41266,-0.78231 0.66725,-0.89156 0.2277,-0.0977 0.692188,-0.0371 0.934978,0.12195 z m 6.30344,-0.59578 c -0.68646,0.31683 -1.01267,0.96181 -1.0182,2.01317 -0.005,0.95323 0.13257,1.39277 0.5807,1.85529 0.75644,0.78072 1.99377,0.70815 2.65607,-0.15578 0.3295,-0.42983 0.44384,-0.84795 0.44323,-1.62091 -8.1e-4,-1.02468 -0.3563,-1.76618 -0.99496,-2.07535 -0.44208,-0.21401 -1.22206,-0.22169 -1.66684,-0.0164 z m 1.37566,0.62286 c 0.7854,0.56248 0.76561,2.5238 -0.0303,3.00918 -0.52455,0.31985 -1.17614,0.094 -1.49566,-0.51835 -0.23734,-0.45491 -0.23134,-1.59206 0.0109,-2.05147 0.33078,-0.62747 0.98688,-0.81773 1.5152,-0.43936 z m 7.92881,-0.55237 c -1.56607,0.81359 -1.37317,3.73406 0.27905,4.22472 1.30077,0.38628 2.295858,-0.3436 2.387788,-1.75143 l 0.0372,-0.56992 h -1.410268 c -1.66111,0 -1.7177,-0.0192 -1.58433,-0.53682 0.23188,-0.89996 1.26973,-1.26892 2.33501,-0.83011 0.426368,0.17563 0.494448,0.14856 0.466798,-0.18559 -0.0229,-0.27691 -0.0482,-0.30291 -0.417448,-0.42891 -0.23856,-0.0814 -0.64439,-0.13548 -1.03259,-0.13756 -0.5504,-0.003 -0.69832,0.0271 -1.06122,0.21562 z m 1.9759,2.69336 c 0,0.7863 -0.89276,1.26401 -1.6452,0.88033 -0.34159,-0.17418 -0.54689,-0.45371 -0.60749,-0.82711 l -0.0475,-0.29294 h 1.15011 1.15012 z m 4.323478,-2.80783 c -0.34528,0.0897 -0.35432,0.10016 -0.37841,0.43614 -0.0279,0.38848 -0.0871,0.3787 0.77145,0.12729 0.80326,-0.23524 1.50664,-0.0114 1.55724,0.49559 0.0432,0.43334 -0.0822,0.5405 -0.94448,0.80658 -0.43994,0.13576 -0.87855,0.29837 -0.97469,0.36137 -0.43622,0.28582 -0.55264,1.20496 -0.21074,1.66369 0.30941,0.41512 0.61662,0.52555 1.43737,0.51668 0.95778,-0.0104 1.17914,-0.0945 1.17914,-0.44853 0,-0.14519 -0.0192,-0.28323 -0.0428,-0.30676 -0.0235,-0.0235 -0.22244,0.01 -0.44202,0.0742 -0.24307,0.0712 -0.58459,0.10362 -0.87308,0.0828 -0.39558,-0.0286 -0.50434,-0.0697 -0.65851,-0.24896 -0.40559,-0.47153 -0.17227,-0.76437 0.8462,-1.06205 0.41565,-0.12149 0.84781,-0.28808 0.96036,-0.3702 0.31487,-0.22975 0.46968,-0.61843 0.42627,-1.07023 -0.075,-0.77984 -0.63245,-1.16626 -1.66771,-1.15589 -0.34752,0.003 -0.79104,0.0477 -0.9856,0.0983 z m 4.52001,0.044 c -0.68647,0.31682 -1.01268,0.9618 -1.0182,2.01316 -0.005,0.95324 0.13257,1.39277 0.5807,1.8553 0.75644,0.78071 1.99377,0.70815 2.65606,-0.15578 0.32568,-0.42484 0.43863,-0.83979 0.44122,-1.62091 0.003,-1.02076 -0.35296,-1.76555 -0.99294,-2.07536 -0.44208,-0.21401 -1.22206,-0.22169 -1.66684,-0.0164 z m 1.37565,0.62285 c 0.10809,0.0774 0.28045,0.30813 0.38303,0.51272 0.25798,0.51457 0.26093,1.45981 0.006,1.98605 -0.42542,0.87879 -1.45483,0.87452 -1.91524,-0.008 -0.23735,-0.45492 -0.23134,-1.59207 0.0109,-2.05148 0.33078,-0.62748 0.98688,-0.81773 1.51519,-0.43937 z m 5.2232,-0.69605 c -0.3067,0.12421 -0.64709,0.60492 -0.73782,1.04196 -0.0504,0.24288 -0.078,1.01035 -0.0655,1.82391 0.0186,1.21246 0.0395,1.41592 0.153,1.48742 0.0934,0.0589 0.19007,0.0561 0.33408,-0.01 l 0.20263,-0.0923 v -1.49014 c 0,-0.81957 0.0332,-1.57747 0.0738,-1.68423 0.13964,-0.36729 0.39112,-0.52362 0.8423,-0.52362 0.34728,0 0.4578,0.0378 0.67908,0.23205 0.38166,0.3351 0.44866,0.66152 0.44866,2.18588 0,1.14799 0.0177,1.34527 0.12434,1.38619 0.20046,0.0769 0.32788,0.0559 0.45961,-0.0758 0.10582,-0.10583 0.12335,-0.40719 0.12232,-2.10279 -6.2e-4,-1.08859 -0.0309,-2.0261 -0.0672,-2.08335 -0.0397,-0.0626 -0.17238,-0.0939 -0.33288,-0.0786 -0.2251,0.0215 -0.27079,0.0593 -0.29177,0.24166 -0.0298,0.25927 -0.0977,0.27092 -0.29684,0.0509 -0.0823,-0.0909 -0.24517,-0.2147 -0.36202,-0.27513 -0.2301,-0.11899 -1.02452,-0.1403 -1.28578,-0.0345 z m 9.70007,0.0835 c -0.62713,0.33131 -1.0095,1.12263 -1.0095,2.08917 0,1.62248 0.96305,2.54298 2.33847,2.23517 0.5604,-0.1254 1.03844,-0.58014 1.2364,-1.17611 0.194,-0.5841 0.14181,-1.87744 -0.0938,-2.32448 -0.20088,-0.38113 -0.61132,-0.78591 -0.91175,-0.89918 -0.36803,-0.13875 -1.23364,-0.0969 -1.55982,0.0754 z m 1.42552,0.61013 c 0.10911,0.0793 0.27999,0.30133 0.37973,0.49335 0.15791,0.30399 0.17803,0.44064 0.15559,1.05662 -0.0304,0.83271 -0.18292,1.21332 -0.58636,1.46266 -0.37406,0.23118 -0.89128,0.17411 -1.21267,-0.1338 -0.55155,-0.52842 -0.62121,-1.96171 -0.12898,-2.65419 0.31422,-0.44205 0.95214,-0.54494 1.39269,-0.22464 z m 7.21421,-0.64322 c -0.36346,0.11177 -0.37339,0.12312 -0.37339,0.42687 0,0.35087 0.0627,0.37637 0.48817,0.1986 0.41476,-0.1733 1.00819,-0.22745 1.3839,-0.12628 0.25995,0.07 0.3631,0.14875 0.45945,0.35078 0.10727,0.22496 0.10953,0.29114 0.0165,0.48487 -0.11464,0.23884 -0.43545,0.39558 -1.28135,0.62606 -0.81995,0.2234 -1.18553,0.79608 -0.98459,1.54233 0.17888,0.66429 0.86255,0.99696 1.85785,0.90403 0.6681,-0.0624 0.92226,-0.18885 0.95506,-0.47518 0.0364,-0.31755 -0.0601,-0.37403 -0.4199,-0.2459 -0.47294,0.16841 -1.20386,0.15011 -1.51216,-0.0378 -0.20489,-0.12492 -0.25524,-0.20659 -0.25427,-0.4124 0.002,-0.42587 0.13918,-0.52859 1.03896,-0.77793 1.05239,-0.29164 1.31729,-0.56093 1.3178,-1.33963 3.2e-4,-0.51816 -0.20396,-0.83019 -0.71394,-1.09036 -0.36998,-0.18874 -1.40759,-0.20344 -1.97812,-0.028 z m -48.747118,0.073 c -0.0271,0.0707 -0.0493,1.00743 -0.0493,2.08167 0,1.6708 0.0179,1.97104 0.12353,2.07671 0.22405,0.22404 0.58396,0.12542 0.58396,-0.16001 0,-0.10347 0.0167,-0.18812 0.037,-0.18812 0.0204,0 0.18846,0.10675 0.37356,0.23722 0.41134,0.28995 1.06881,0.40167 1.22886,0.20881 0.0557,-0.0671 0.0899,-0.2215 0.076,-0.34301 -0.0245,-0.21324 -0.0408,-0.22093 -0.47153,-0.22093 -0.50962,0 -0.78929,-0.15962 -1.04737,-0.59778 -0.13719,-0.23292 -0.16223,-0.45214 -0.19652,-1.72118 l -0.0393,-1.45426 -0.28479,-0.0238 c -0.2063,-0.0172 -0.29836,0.0116 -0.33409,0.10468 z m 7.46784,0 c -0.0271,0.0707 -0.0493,1.0264 -0.0493,2.12383 0,1.94447 0.004,1.99757 0.16454,2.08339 0.25618,0.1371 0.54294,0.0304 0.54294,-0.20194 0,-0.25572 0.11748,-0.24621 0.43831,0.0355 0.16582,0.14559 0.39141,0.24984 0.61234,0.28297 0.68637,0.10293 1.18885,-0.14324 1.47376,-0.72197 0.17967,-0.36497 0.1876,-0.45082 0.1876,-2.03186 v -1.65078 h -0.31443 -0.31445 l -0.0393,1.61148 c -0.0424,1.73834 -0.0738,1.87738 -0.47008,2.08232 -0.47431,0.24527 -1.08825,0.0489 -1.37723,-0.44043 -0.13777,-0.23332 -0.16207,-0.45091 -0.19652,-1.75981 l -0.0393,-1.49356 -0.28478,-0.0238 c -0.20632,-0.0172 -0.29837,0.0116 -0.33409,0.10469 z m 20.209288,-0.0715 c -0.0309,0.0309 -0.0561,1.39445 -0.0561,3.03016 v 2.97404 h 0.31537 0.31537 l -0.0206,-3.00679 -0.0206,-3.00678 -0.23865,-0.0234 c -0.13126,-0.0129 -0.26391,0.002 -0.29478,0.0328 z m 7.43785,0.004 c -0.26511,0.0541 -0.55532,0.36912 -0.64821,0.7037 -0.0465,0.16744 -0.0847,0.89878 -0.085,1.62522 l -4.2e-4,1.32079 -0.23582,0.0822 c -0.18643,0.065 -0.23583,0.12839 -0.23583,0.30266 0,0.17348 0.0494,0.23768 0.23211,0.30136 0.22288,0.0777 0.23305,0.10225 0.25549,0.6169 l 0.0233,0.536 0.2669,0.0255 c 0.34161,0.0326 0.39858,-0.0634 0.40008,-0.674 l 8.1e-4,-0.49131 h 0.54383 c 0.68809,0 0.79252,-0.0415 0.79252,-0.31443 0,-0.27301 -0.10443,-0.31444 -0.79252,-0.31444 h -0.54383 v -1.44208 c 0,-1.68903 0.005,-1.70148 0.71367,-1.70348 0.52779,-0.002 0.6426,-0.0696 0.60932,-0.36106 -0.0258,-0.22538 -0.0306,-0.22739 -0.5762,-0.23778 -0.30265,-0.006 -0.62693,0.005 -0.72064,0.0242 z m 2.23106,-0.004 c -0.0309,0.0309 -0.0561,0.98841 -0.0561,2.12786 v 2.07172 l 0.20262,0.0923 c 0.14413,0.0657 0.24058,0.0684 0.33409,0.009 0.11756,-0.0742 0.13146,-0.30645 0.13146,-2.1968 v -2.11387 l -0.27794,-0.0234 c -0.15286,-0.0129 -0.30321,0.002 -0.33408,0.0328 z m 6.60313,0 c -0.1028,0.1028 -0.0665,4.15443 0.0382,4.2591 0.21118,0.21117 0.61315,0.0566 0.61315,-0.23583 0,-0.1861 0.0162,-0.18226 0.41434,0.0984 0.75532,0.5324 1.69966,0.33679 2.09646,-0.43429 0.18375,-0.35705 0.19764,-0.47052 0.22749,-1.85819 0.0175,-0.81286 0.009,-1.56997 -0.0196,-1.68247 -0.0453,-0.18069 -0.0854,-0.20173 -0.34347,-0.18031 l -0.29213,0.0242 -0.0393,1.61149 c -0.0337,1.37961 -0.0597,1.64144 -0.18071,1.8197 -0.38635,0.56894 -1.32811,0.46311 -1.68462,-0.18931 -0.11457,-0.20967 -0.14616,-0.51898 -0.17851,-1.74831 l -0.0393,-1.49357 -0.27795,-0.0234 c -0.15286,-0.0129 -0.3032,0.002 -0.33408,0.0328 z m -6.62585,5.24438 c -0.0241,0.063 -0.0327,0.2508 -0.019,0.41748 0.0244,0.297 0.0312,0.30305 0.33933,0.30305 h 0.31444 v -0.39304 -0.39305 l -0.29542,-0.0244 c -0.20332,-0.0168 -0.30911,0.0113 -0.33932,0.09 z m -29.668968,3.14408 c -0.30341,0.0788 -0.35736,0.12362 -0.37924,0.31475 -0.0463,0.40426 0.0151,0.45595 0.38578,0.32514 0.508,-0.17924 1.17466,-0.15122 1.49506,0.0628 0.3356,0.22419 0.54196,0.62756 0.54212,1.05965 1e-4,0.36927 -0.0631,0.411 -0.27246,0.1797 -0.39743,-0.43917 -1.30775,-0.49642 -1.85567,-0.11671 -1.0705,0.74185 -1.06966,3.22402 0.002,3.93278 0.56278,0.37243 1.30881,0.35149 1.76558,-0.0495 0.30727,-0.26979 0.36133,-0.28332 0.36133,-0.0904 0,0.19085 0.15182,0.33016 0.35984,0.33016 0.34873,0 0.36204,-0.0976 0.33422,-2.45268 -0.0243,-2.05591 -0.0386,-2.25137 -0.18984,-2.57829 -0.20008,-0.43273 -0.63521,-0.8282 -1.03268,-0.93858 -0.3808,-0.10575 -1.06354,-0.0962 -1.51536,0.0213 z m 1.47011,2.3291 c 0.35828,0.21845 0.51606,0.57606 0.55635,1.26092 0.044,0.74868 -0.0805,1.21411 -0.41415,1.54778 -0.21995,0.21993 -0.31681,0.26022 -0.62573,0.26022 -0.51074,0 -0.78056,-0.16442 -0.9962,-0.60707 -0.14274,-0.29299 -0.18253,-0.50514 -0.18103,-0.9651 0.002,-0.73897 0.12537,-1.10553 0.47333,-1.41103 0.33089,-0.29053 0.79641,-0.32414 1.18743,-0.0857 z m 23.763328,-2.33369 c -0.32143,0.0877 -0.35605,0.12077 -0.37912,0.36199 -0.0346,0.36247 0.0596,0.42966 0.40198,0.28659 0.37691,-0.15748 1.10177,-0.15295 1.44309,0.009 0.34052,0.16158 0.57788,0.60788 0.57788,1.08657 0,0.19628 -0.0218,0.35687 -0.0486,0.35687 -0.0267,0 -0.16673,-0.10373 -0.31112,-0.23051 -0.3237,-0.2842 -0.85199,-0.3816 -1.31857,-0.24309 -0.45565,0.13528 -0.95361,0.67106 -1.10853,1.19275 -0.1564,0.52662 -0.15573,1.41748 0.002,1.94675 0.14836,0.49959 0.63356,1.0595 1.03212,1.19105 0.43807,0.14458 1.0053,0.0537 1.39967,-0.22431 l 0.34212,-0.24116 0.082,0.23534 c 0.0717,0.20552 0.11469,0.23218 0.33981,0.21052 l 0.25777,-0.0248 0.0211,-2.12245 c 0.0128,-1.29343 -0.0119,-2.28139 -0.0634,-2.52938 -0.10613,-0.51178 -0.43929,-0.97797 -0.83293,-1.16557 -0.37646,-0.1794 -1.34577,-0.23016 -1.8368,-0.0962 z m 1.58439,2.38436 c 0.30016,0.26654 0.47691,0.78916 0.47691,1.41021 0,0.72441 -0.11464,1.06737 -0.45736,1.36828 -0.22378,0.19649 -0.34158,0.23976 -0.65277,0.23976 -0.72589,0 -1.1037,-0.54431 -1.10666,-1.59435 -0.002,-0.82079 0.23209,-1.36898 0.66645,-1.55856 0.25305,-0.11046 0.88693,-0.0309 1.07343,0.13466 z m 9.27853,-2.18958 c 0.0234,0.28279 0.0381,0.29661 0.36134,0.33975 0.40921,0.0546 0.5101,0.15038 0.71745,0.68096 l 0.16081,0.4115 -0.78913,2.05481 c -0.43402,1.13015 -0.77045,2.10347 -0.74762,2.16295 0.0519,0.13508 0.47056,0.14221 0.58032,0.01 0.0448,-0.054 0.33698,-0.78056 0.64921,-1.61447 0.31689,-0.84632 0.60521,-1.5037 0.65258,-1.48791 0.0467,0.0155 0.33478,0.69784 0.64026,1.51619 0.30548,0.81836 0.58293,1.53215 0.61655,1.58619 0.0779,0.12512 0.57879,0.12893 0.6202,0.005 0.0347,-0.10413 -1.70481,-4.78456 -1.97521,-5.3146 -0.22775,-0.44643 -0.56317,-0.64407 -1.09371,-0.64444 l -0.41744,-3.1e-4 0.0244,0.29478 z m -42.508548,1.46455 c -0.72685,0.33845 -1.13425,1.07403 -1.13425,2.04795 0,1.01147 0.41771,1.80345 1.12486,2.13271 0.82191,0.38268 1.7168,0.18404 2.22862,-0.4947 0.2657,-0.35234 0.44821,-1.00713 0.40523,-1.45381 l -0.0248,-0.25757 -1.47705,-0.0214 c -1.64207,-0.0238 -1.61962,-0.0154 -1.47576,-0.54966 0.10443,-0.3878 0.33681,-0.69028 0.65787,-0.85631 0.31517,-0.16298 1.1543,-0.15948 1.617,0.006 0.48085,0.17276 0.56023,0.1596 0.55882,-0.0926 -0.002,-0.31586 -0.0705,-0.38189 -0.54367,-0.52205 -0.64372,-0.19069 -1.4514,-0.16538 -1.93687,0.0607 z m 1.91693,2.69878 c 0.0372,0.26177 -0.21703,0.72916 -0.4901,0.9009 -0.18622,0.11711 -0.34667,0.14556 -0.695,0.12322 -0.38338,-0.0246 -0.4931,-0.068 -0.71509,-0.28323 -0.25484,-0.247 -0.4795,-0.7537 -0.39488,-0.8906 0.023,-0.0373 0.54328,-0.058 1.15611,-0.046 1.08237,0.0212 1.11492,0.0267 1.13896,0.19571 z m 11.09998,-2.75254 c -0.69679,0.36101 -0.90129,1.43471 -0.4058,2.13055 0.26606,0.37365 0.6561,0.51191 1.583358,0.5613 l 0.8254,0.044 0.0245,0.21229 c 0.08,0.69333 -0.90515,1.0685 -1.909958,0.72736 -0.402,-0.13649 -0.51266,-0.10488 -0.51091,0.14586 0.002,0.27331 0.0867,0.34443 0.58247,0.48844 1.023378,0.2973 1.963558,0.0205 2.342958,-0.68967 0.16922,-0.31679 0.17842,-0.41911 0.17842,-1.98479 v -1.65079 l -0.25602,-0.0246 c -0.17875,-0.0172 -0.26772,0.0124 -0.29478,0.0983 -0.0213,0.0676 -0.0554,0.17604 -0.0756,0.24094 -0.0293,0.0938 -0.11047,0.0661 -0.39605,-0.13516 -0.3021,-0.21294 -0.44302,-0.25735 -0.886778,-0.2794 -0.39421,-0.0196 -0.59678,0.01 -0.80117,0.11551 z m 1.428398,0.58211 c 0.36534,0.19553 0.76812,1.11833 0.63712,1.4597 -0.0493,0.1284 -1.01921,0.14353 -1.454288,0.0227 -0.76488,-0.21244 -0.83743,-1.21354 -0.11141,-1.53732 0.24779,-0.1105 0.665648,-0.0858 0.928578,0.0549 z m 35.91999,-0.61236 c -0.38546,0.14603 -0.85287,0.567 -1.04793,0.94384 -0.23577,0.45547 -0.28864,1.50859 -0.10709,2.13311 0.17249,0.59333 0.70103,1.1435 1.24481,1.29576 1.26354,0.35376 2.30263,-0.44161 2.3557,-1.80316 l 0.0199,-0.51096 -1.47705,-0.0214 c -1.65009,-0.0239 -1.64384,-0.0215 -1.48148,-0.56342 0.11374,-0.37965 0.35102,-0.68091 0.66359,-0.84255 0.32593,-0.16854 1.17049,-0.16148 1.60696,0.0134 0.41767,0.16738 0.58906,0.11266 0.55568,-0.17745 -0.0389,-0.33801 -0.49189,-0.5197 -1.36126,-0.54598 -0.43413,-0.0131 -0.80962,0.0173 -0.97184,0.0788 z m 1.78272,2.74827 c 0.0429,0.22356 -0.27631,0.79534 -0.52655,0.94317 -0.12649,0.0747 -0.38426,0.13585 -0.57281,0.13585 -0.48738,0 -0.85446,-0.2234 -1.07688,-0.65533 -0.30338,-0.5892 -0.26654,-0.61015 1.02866,-0.58493 1.00059,0.0195 1.12369,0.0368 1.14758,0.16124 z m 9.91923,-2.72628 c -0.35593,0.15392 -0.75553,0.53961 -0.96985,0.93608 -0.14616,0.27035 -0.16998,0.44115 -0.16998,1.21843 0,0.78293 0.0234,0.94762 0.17415,1.22964 0.35673,0.66701 1.01443,1.05048 1.80018,1.04958 0.88658,-8.1e-4 1.40799,-0.35093 1.14361,-0.76748 -0.0506,-0.0797 -0.13139,-0.0758 -0.40173,0.0196 -1.21553,0.42887 -2.0502,-0.19454 -2.04631,-1.52839 0.002,-0.94213 0.33649,-1.49147 0.99617,-1.63965 0.33737,-0.0758 0.92122,-0.008 1.19602,0.13927 0.1101,0.0589 0.17346,0.0482 0.24822,-0.0419 0.16277,-0.19612 0.002,-0.51365 -0.3197,-0.62936 -0.38494,-0.13867 -1.31595,-0.13073 -1.65078,0.0141 z m 6.06111,0.082 c -0.8851,0.44107 -1.28997,1.53425 -1.0253,2.76839 0.19179,0.89425 0.84097,1.48273 1.72401,1.5628 0.60498,0.0548 1.0727,-0.1167 1.44666,-0.53062 0.32123,-0.35558 0.54006,-1.01049 0.50411,-1.50877 l -0.0243,-0.3372 -1.4676,-0.0393 c -0.80718,-0.0216 -1.48972,-0.0615 -1.51676,-0.0887 -0.10543,-0.10593 0.147,-0.79856 0.38142,-1.04655 0.39722,-0.42021 1.25959,-0.50815 2.03814,-0.20785 0.3885,0.14986 0.45894,0.11609 0.43198,-0.20708 -0.0233,-0.27987 -0.043,-0.29826 -0.45675,-0.42754 -0.23838,-0.0745 -0.69874,-0.13726 -1.02613,-0.13991 -0.49003,-0.004 -0.66642,0.0314 -1.00946,0.20234 z m 1.95699,2.66461 c 0,1.11076 -1.5291,1.46335 -2.12287,0.4895 -0.0859,-0.14091 -0.15634,-0.35348 -0.15649,-0.47238 l -3.2e-4,-0.21617 h 1.13982 1.13983 z m -75.976326,-2.70124 c -0.0222,0.058 -0.0312,1.36103 -0.0198,2.89564 l 0.0207,2.79021 1.13983,0.024 c 0.661928,0.0139 1.261928,-0.0117 1.431068,-0.061 0.37639,-0.10988 0.76297,-0.43791 0.89858,-0.76247 0.22864,-0.54721 0.066,-1.31696 -0.34882,-1.65086 l -0.21213,-0.17074 0.3279,-0.2821 c 0.86988,-0.74831 0.72932,-2.15986 -0.26376,-2.64881 -0.34222,-0.16849 -0.50125,-0.18893 -1.655838,-0.2128 -1.01424,-0.021 -1.2856,-0.005 -1.31773,0.079 z m 2.317388,0.64156 c 0.62022,0.16232 0.91202,0.92741 0.59071,1.54876 -0.17012,0.32896 -0.48308,0.46008 -1.23636,0.51799 -0.998708,0.0767 -1.002668,0.0725 -1.002668,-1.05786 0,-0.61449 0.0316,-0.95647 0.0943,-1.01915 0.11994,-0.11994 1.080748,-0.1136 1.553988,0.0102 z m 0.26397,2.94815 c 0.42396,0.3987 0.3031,1.17424 -0.21685,1.39149 -0.39676,0.16578 -1.583108,0.15911 -1.647718,-0.009 -0.0684,-0.17842 -0.059,-1.48893 0.0113,-1.55923 0.0324,-0.0324 0.41878,-0.0472 0.85856,-0.0328 0.709758,0.0233 0.821538,0.0469 0.994768,0.20976 z m 7.10525,-3.63293 c -0.0309,0.0308 -0.0561,1.39444 -0.0561,3.03016 v 2.97404 h 0.31537 0.31537 l -0.0206,-3.00679 -0.0206,-3.00679 -0.23865,-0.0234 c -0.13126,-0.0129 -0.26391,0.002 -0.29478,0.0328 z m 6.74371,0.1236 c -0.0245,0.0998 -0.0345,1.06197 -0.0223,2.13816 0.0242,2.13946 0.0325,2.17513 0.48287,2.06211 l 0.20995,-0.0527 -0.0209,-2.14027 -0.0209,-2.14028 -0.29213,-0.0242 c -0.24975,-0.0207 -0.29858,0.002 -0.33656,0.15722 z m 6.661528,-0.0815 c -0.073,0.073 -0.0979,0.61063 -0.0979,2.11636 0,2.2026 0.006,2.23157 0.44725,2.18097 0.17485,-0.02 0.22611,-0.0704 0.2458,-0.24151 0.0137,-0.1189 0.0392,-0.21617 0.0567,-0.21617 0.0175,0 0.19489,0.11497 0.39424,0.25548 0.32228,0.22717 0.42121,0.25548 0.89276,0.25548 0.45661,0 0.56946,-0.0299 0.81196,-0.21483 0.49509,-0.37761 0.57081,-0.71933 0.57081,-2.57579 v -1.61148 l -0.26688,-0.0255 c -0.16051,-0.0153 -0.2932,0.016 -0.33288,0.0786 -0.0363,0.0572 -0.0666,0.75079 -0.0672,1.54122 -0.002,1.54594 -0.0599,1.84934 -0.40344,2.08999 -0.248,0.1737 -0.76095,0.1613 -1.06786,-0.0258 -0.47243,-0.28805 -0.53007,-0.50556 -0.57374,-2.16493 l -0.0393,-1.49357 -0.23621,-0.0232 c -0.12992,-0.0127 -0.28026,0.0208 -0.33409,0.0747 z m 7.11166,-0.0421 c -0.0308,0.0308 -0.0561,1.39444 -0.0561,3.03016 v 2.97404 h 0.31444 0.31443 v -1.01728 c 0,-0.64436 0.0312,-1.03653 0.085,-1.06981 0.0468,-0.0289 0.1794,0.0375 0.29478,0.14759 0.55768,0.53194 1.50748,0.48781 1.99597,-0.0927 0.31375,-0.37287 0.38837,-0.89551 0.36081,-2.52709 l -0.0246,-1.45426 h -0.27513 -0.27513 l -0.0462,1.53287 c -0.0254,0.84309 -0.0847,1.62551 -0.1317,1.73873 -0.30567,0.7358 -1.38579,0.70198 -1.78337,-0.0558 -0.14038,-0.26756 -0.16626,-0.49501 -0.2005,-1.7615 l -0.0393,-1.45426 -0.23865,-0.0233 c -0.13126,-0.0129 -0.26392,0.002 -0.29479,0.0328 z m 4.71281,0.004 c -0.0288,0.0288 -0.0524,0.97685 -0.0524,2.10671 0,2.15768 0.0135,2.24298 0.35374,2.24298 0.33921,0 0.35374,-0.0892 0.35374,-2.17104 0,-1.0903 -0.0215,-2.03832 -0.0478,-2.10671 -0.048,-0.12494 -0.50072,-0.17857 -0.60735,-0.072 z m 6.74764,0.11988 c -0.0243,0.0998 -0.0344,1.45491 -0.0223,3.01137 l 0.0219,2.82993 h 0.31444 0.31443 l 0.0219,-1.04157 c 0.0121,-0.57286 0.0375,-1.04158 0.0567,-1.04158 0.0191,0 0.19783,0.11497 0.39718,0.2555 0.32127,0.22644 0.422,0.25547 0.88665,0.25547 0.64427,0 0.97398,-0.20007 1.21876,-0.73955 0.14268,-0.31443 0.16783,-0.55106 0.19509,-1.83506 0.0172,-0.81075 0.009,-1.56451 -0.0192,-1.67503 -0.0444,-0.17667 -0.0857,-0.19801 -0.34257,-0.1767 l -0.29214,0.0242 -0.0393,1.61528 c -0.0336,1.38074 -0.0599,1.64661 -0.18098,1.83116 -0.37202,0.5669 -1.32525,0.45337 -1.68217,-0.20035 -0.11724,-0.21474 -0.14808,-0.51399 -0.18068,-1.75252 l -0.0393,-1.49357 -0.29214,-0.0242 c -0.2498,-0.0207 -0.29855,0.002 -0.33635,0.15722 z m 4.81158,-0.1236 c -0.0309,0.0309 -0.0561,1.39445 -0.0561,3.03016 v 2.97404 h 0.31537 0.31537 l -0.0206,-3.0068 -0.0206,-3.00678 -0.23865,-0.0233 c -0.13126,-0.0129 -0.26391,0.002 -0.29478,0.0328 z m 13.51699,0.004 c -0.0288,0.0288 -0.0524,0.87402 -0.0524,1.87821 0,1.98338 0.0143,1.92122 -0.44376,1.92122 -0.17273,0 -0.19225,0.0293 -0.17044,0.25548 0.0217,0.22581 0.0566,0.26004 0.29976,0.29478 0.26463,0.0378 0.27698,0.0544 0.32346,0.43519 0.0688,0.56361 0.11974,0.68725 0.38992,0.94628 0.22531,0.21601 0.27909,0.23001 0.88344,0.23001 h 0.64353 v -0.23583 c 0,-0.21922 -0.0221,-0.2373 -0.31443,-0.25677 -0.74823,-0.0498 -0.90401,-0.17635 -0.90401,-0.73402 v -0.39 l 0.88436,0.0222 0.88434,0.0222 0.0473,0.43977 c 0.0939,0.87344 0.48034,1.19537 1.38713,1.15565 l 0.5308,-0.0233 v -0.23583 c 0,-0.2325 -0.007,-0.23651 -0.50412,-0.28399 -0.60055,-0.0574 -0.71431,-0.17071 -0.71431,-0.71159 v -0.37597 l 1.19878,-0.0217 1.19879,-0.0217 v -2.16174 -2.16174 h -0.27514 -0.27513 l -0.0212,1.80176 c -0.014,1.1951 -0.0511,1.83784 -0.11006,1.90889 -0.0667,0.0804 -0.28692,0.10156 -0.88284,0.0848 l -0.79395,-0.0223 -0.0212,-1.80177 c -0.0142,-1.2091 -0.0508,-1.83746 -0.11122,-1.91027 -0.0508,-0.0613 -0.19571,-0.0982 -0.33258,-0.0849 l -0.24252,0.0237 -0.0211,1.86582 c -0.0246,2.17198 0.0891,1.96871 -1.07945,1.93053 l -0.70748,-0.0231 -0.0212,-1.80178 c -0.0137,-1.16775 -0.0517,-1.83853 -0.10788,-1.90626 -0.09,-0.10846 -0.47362,-0.1438 -0.56533,-0.0521 z m 11.20792,0.0384 c -0.073,0.073 -0.0979,0.61064 -0.0979,2.11636 0,2.20261 0.006,2.23158 0.44724,2.18098 l 0.22093,-0.0254 v -2.16174 -2.16175 l -0.23621,-0.0232 c -0.12992,-0.0127 -0.28026,0.0209 -0.33409,0.0747 z m 6.6213,0.004 c -0.0221,0.0575 -0.0307,1.04137 -0.0191,2.18642 l 0.021,2.08189 h 0.27405 c 0.21219,0 0.28045,-0.0355 0.30242,-0.15722 0.0517,-0.28641 0.1602,-0.31419 0.38597,-0.0988 0.56456,0.53859 1.51147,0.49788 2.00287,-0.0861 0.31374,-0.37287 0.38836,-0.89551 0.36082,-2.52709 l -0.0246,-1.45426 h -0.27514 -0.27512 l -0.0462,1.53287 c -0.0254,0.84308 -0.0847,1.6255 -0.1317,1.73872 -0.30567,0.7358 -1.3858,0.70199 -1.78338,-0.0558 -0.14036,-0.26757 -0.16626,-0.49501 -0.20048,-1.7615 l -0.0393,-1.45425 -0.25603,-0.0247 c -0.15956,-0.0154 -0.27112,0.0147 -0.29611,0.0799 z m 5.43527,-0.0148 c -0.32064,0.0983 -0.58626,0.37307 -0.67723,0.70056 -0.0429,0.15453 -0.0783,0.89205 -0.0785,1.63893 l -4.2e-4,1.35796 -0.24001,0.048 c -0.21246,0.0425 -0.23728,0.0758 -0.21617,0.28973 0.0181,0.18376 0.0709,0.25265 0.22035,0.28731 0.1809,0.0419 0.19966,0.0884 0.23583,0.58457 0.0452,0.62024 0.16564,0.7661 0.50485,0.61155 0.1896,-0.0864 0.20263,-0.12761 0.20263,-0.64109 v -0.54877 l 0.64852,-0.0229 0.64852,-0.0229 0.0244,-0.25222 0.0244,-0.25223 -0.65325,-0.0229 -0.65326,-0.023 -0.0213,-1.41726 c -0.026,-1.72316 -0.0316,-1.70977 0.74209,-1.7664 l 0.53701,-0.0393 v -0.27512 -0.27513 l -0.51096,-0.0145 c -0.28102,-0.008 -0.61285,0.0168 -0.7374,0.0549 z m -66.832748,5.21335 c -0.0241,0.063 -0.0327,0.2508 -0.019,0.41748 0.0244,0.297 0.0312,0.30305 0.33933,0.30305 h 0.31444 v -0.39305 -0.39304 l -0.29542,-0.0244 c -0.20332,-0.0168 -0.30911,0.0113 -0.33932,0.09 z m 18.473078,0 c -0.0242,0.063 -0.0327,0.2508 -0.019,0.41748 0.0244,0.297 0.0312,0.30305 0.33933,0.30305 h 0.31443 v -0.39305 -0.39304 l -0.29542,-0.0244 c -0.20332,-0.0168 -0.3091,0.0113 -0.33932,0.09 z m 30.12614,-0.0525 c -0.0288,0.0288 -0.0524,0.22337 -0.0524,0.43234 v 0.37995 h 0.31443 0.31444 v -0.43235 -0.43235 h -0.26203 c -0.14411,0 -0.28561,0.0236 -0.31444,0.0524 z m 6.12839,0.0678 c -0.0694,0.18076 -0.0592,0.5286 0.0191,0.65206 0.0397,0.0626 0.17238,0.0939 0.33289,0.0786 0.26446,-0.0253 0.26689,-0.0291 0.26689,-0.41853 v -0.39304 l -0.28479,-0.0238 c -0.2063,-0.0172 -0.29836,0.0116 -0.33408,0.1047 z"
   style="fill:#adadad;stroke-width:0.07860883" /></g></svg>